<svg width="100" height="60" viewBox="0 0 100 60" fill="none" xmlns="http://www.w3.org/2000/svg">
<rect width="100" height="60" rx="4" fill="#F7931A"/>
<g clip-path="url(#clip0)">
<path fill-rule="evenodd" clip-rule="evenodd" d="M35.067 23.9578C35.7327 23.9578 36.307 24.0761 36.7901 24.3093C37.2752 24.5445 37.6763 24.8613 37.9973 25.2598C38.3142 25.6603 38.5501 26.1287 38.7024 26.6649C38.8537 27.2032 38.9296 27.7812 38.9296 28.4006C38.9296 29.3511 38.7547 30.2501 38.4009 31.097C38.0475 31.945 37.5675 32.6807 36.9573 33.3083C36.3475 33.9353 35.6275 34.4292 34.7973 34.794C33.9681 35.1598 33.067 35.3419 32.0993 35.3419C31.9742 35.3419 31.7542 35.3389 31.4434 35.3317C31.1327 35.3256 30.7752 35.294 30.3752 35.2399C29.9727 35.1843 29.547 35.1016 29.0973 34.9909C28.6481 34.8822 28.2214 34.7297 27.8193 34.5363L31.4122 19.5169L34.6301 19.0205L33.344 24.3501C33.6193 24.2266 33.8968 24.1307 34.1737 24.0613C34.4522 23.994 34.7491 23.9578 35.067 23.9578ZM32.3681 32.8027C32.8527 32.8027 33.3091 32.6843 33.7383 32.4511C34.1686 32.2185 34.5398 31.9037 34.8506 31.5113C35.1614 31.118 35.4081 30.6741 35.5875 30.1782C35.767 29.6828 35.8578 29.1659 35.8578 28.6277C35.8578 27.9669 35.747 27.4511 35.5255 27.0787C35.304 26.7072 34.8947 26.521 34.2998 26.521C34.105 26.521 33.8537 26.5578 33.5424 26.6236C33.2301 26.6945 32.9506 26.8399 32.6998 27.0588L31.3301 32.7195C31.4127 32.7333 31.486 32.7475 31.5481 32.7603C31.6091 32.7741 31.6763 32.7843 31.7434 32.7914C31.8147 32.7996 31.8957 32.8032 31.9937 32.8032C32.0916 32.8032 32.2157 32.8027 32.3681 32.8027Z" fill="white"/>
<path fill-rule="evenodd" clip-rule="evenodd" d="M42.2682 35.0538H39.1943L41.7902 24.1869H44.8851L42.2682 35.0538ZM43.7636 22.864C43.3343 22.864 42.9456 22.7364 42.6005 22.4824C42.2523 22.2293 42.08 21.8395 42.08 21.3145C42.08 21.0257 42.139 20.7543 42.2559 20.4992C42.3743 20.2441 42.5297 20.0237 42.7241 19.8375C42.9184 19.6523 43.1431 19.5043 43.3984 19.3926C43.6554 19.2829 43.9287 19.2283 44.22 19.2283C44.6487 19.2283 45.0359 19.3553 45.382 19.6099C45.7272 19.8655 45.901 20.2553 45.901 20.7773C45.901 21.067 45.8425 21.3395 45.7241 21.5946C45.6066 21.8497 45.4518 22.0691 45.2574 22.2563C45.0651 22.4415 44.8379 22.589 44.5831 22.6997C44.3261 22.8109 44.0543 22.864 43.7636 22.864Z" fill="white"/>
<path fill-rule="evenodd" clip-rule="evenodd" d="M47.5779 21.4808L50.7973 20.9844L50.0066 24.1869H53.4543L52.8317 26.7068H49.4045L48.4917 30.5084C48.4076 30.8252 48.3599 31.1211 48.3466 31.3956C48.3317 31.6721 48.3666 31.9094 48.4497 32.1089C48.5322 32.3089 48.6809 32.4629 48.8963 32.5726C49.1107 32.6834 49.4179 32.739 49.8199 32.739C50.1512 32.739 50.4743 32.7078 50.7866 32.6451C51.0968 32.5844 51.4117 32.4987 51.7302 32.3869L51.9594 34.7436C51.544 34.8951 51.0943 35.0257 50.6097 35.1354C50.1245 35.2461 49.5497 35.2997 48.8855 35.2997C47.9307 35.2997 47.1902 35.1594 46.663 34.8783C46.1363 34.5951 45.764 34.2089 45.5409 33.7196C45.3209 33.2323 45.223 32.6701 45.2507 32.0369C45.2794 31.4022 45.3753 30.7349 45.5409 30.0323L47.5779 21.4808Z" fill="white"/>
<path fill-rule="evenodd" clip-rule="evenodd" d="M53.3193 30.7159C53.3193 29.7797 53.4716 28.8975 53.7763 28.0705C54.0798 27.2434 54.5178 26.5205 55.086 25.8996C55.6522 25.2817 56.3414 24.7924 57.1527 24.4338C57.9604 24.0761 58.8645 23.896 59.8614 23.896C60.485 23.896 61.0424 23.9542 61.5327 24.072C62.025 24.1904 62.4706 24.344 62.8732 24.5363L61.8132 26.9348C61.5363 26.823 61.2486 26.7246 60.9516 26.6348C60.6542 26.544 60.2911 26.5001 59.8619 26.5001C58.8363 26.5001 58.025 26.8516 57.4214 27.5526C56.8204 28.2547 56.5173 29.1991 56.5173 30.3843C56.5173 31.0868 56.6696 31.6542 56.9752 32.0889C57.2793 32.523 57.8409 32.7389 58.6568 32.7389C59.0593 32.7389 59.4475 32.697 59.8198 32.6154C60.1947 32.5327 60.5255 32.4292 60.8173 32.3057L61.0465 34.7639C60.6578 34.9144 60.2291 35.0501 59.7588 35.1684C59.2875 35.2832 58.7265 35.3419 58.0757 35.3419C57.2173 35.3419 56.4901 35.2174 55.8957 34.971C55.3009 34.721 54.8091 34.3889 54.4219 33.9684C54.0327 33.547 53.7532 33.0547 53.5804 32.4899C53.407 31.9271 53.3193 31.3343 53.3193 30.7159H53.3193Z" fill="white"/>
<path fill-rule="evenodd" clip-rule="evenodd" d="M66.9727 35.3429C66.2389 35.3429 65.6019 35.2322 65.0614 35.0123C64.5225 34.7918 64.0763 34.4832 63.723 34.0827C63.3696 33.6842 63.1045 33.2117 62.9235 32.6679C62.7419 32.1245 62.6553 31.522 62.6553 30.8623C62.6553 30.0342 62.7891 29.2066 63.0589 28.3811C63.3276 27.5546 63.726 26.8117 64.2542 26.151C64.7778 25.4893 65.4235 24.9485 66.1845 24.5265C66.944 24.1082 67.8184 23.8975 68.7999 23.8975C69.5199 23.8975 70.1542 24.0087 70.7019 24.2286C71.2471 24.449 71.6963 24.7597 72.0517 25.1582C72.403 25.5587 72.6701 26.0291 72.8496 26.574C73.0307 27.1163 73.1194 27.7204 73.1194 28.3806C73.1194 29.2061 72.9876 30.0337 72.726 30.8617C72.464 31.6852 72.0758 32.4301 71.563 33.0918C71.0512 33.7526 70.4112 34.2929 69.6425 34.7133C68.8737 35.1327 67.983 35.3429 66.9727 35.3429ZM68.5086 26.501C68.0527 26.501 67.6501 26.6327 67.305 26.8929C66.9589 27.1556 66.6681 27.4862 66.4337 27.8847C66.1968 28.2847 66.0209 28.7225 65.9025 29.1964C65.785 29.6725 65.7271 30.122 65.7271 30.5495C65.7271 31.2388 65.8389 31.7755 66.0584 32.1623C66.2814 32.5464 66.6814 32.7398 67.2635 32.7398C67.7209 32.7398 68.1214 32.6092 68.4686 32.3464C68.8127 32.0857 69.1035 31.7551 69.3399 31.3556C69.5753 30.9577 69.7527 30.5189 69.8712 30.0439C69.9876 29.5694 70.0466 29.1174 70.0466 28.6908C70.0466 28.0031 69.9353 27.4653 69.7137 27.0791C69.4922 26.6939 69.0901 26.501 68.5086 26.501Z" fill="white"/>
<path fill-rule="evenodd" clip-rule="evenodd" d="M76.4675 35.0538H73.3916L75.9875 24.1869H79.0839L76.4675 35.0538ZM77.9608 22.864C77.5321 22.864 77.1434 22.7364 76.7988 22.4824C76.4521 22.2293 76.2783 21.8395 76.2783 21.3145C76.2783 21.0257 76.3378 20.7543 76.4552 20.4992C76.5726 20.2441 76.7285 20.0237 76.9229 19.8375C77.1162 19.6523 77.3429 19.5043 77.5978 19.3926C77.8531 19.2829 78.1265 19.2283 78.4172 19.2283C78.847 19.2283 79.2352 19.3553 79.5808 19.6099C79.927 19.8655 80.1013 20.2553 80.1013 20.7773C80.1013 21.067 80.0393 21.3395 79.9229 21.5946C79.8065 21.8497 79.6511 22.0691 79.4572 22.2563C79.2624 22.4415 79.0388 22.589 78.7834 22.6997C78.526 22.8109 78.2531 22.864 77.9608 22.864Z" fill="white"/>
<path fill-rule="evenodd" clip-rule="evenodd" d="M81.2975 24.6821C81.5308 24.6143 81.7914 24.5326 82.0749 24.4439C82.3596 24.3551 82.677 24.2724 83.0319 24.1979C83.3832 24.1214 83.7791 24.0597 84.2149 24.0107C84.6508 23.9617 85.1467 23.9377 85.6991 23.9377C87.3196 23.9377 88.4375 24.4071 89.0544 25.3439C89.6703 26.2806 89.7775 27.5622 89.377 29.1862L87.9637 35.0536H84.8698L86.2401 29.3097C86.3232 28.951 86.3893 28.6041 86.4375 28.2653C86.4867 27.9301 86.4837 27.6342 86.4267 27.3781C86.3729 27.125 86.2437 26.9184 86.0442 26.7576C85.8411 26.599 85.5344 26.5204 85.1185 26.5204C84.718 26.5204 84.3103 26.5633 83.8939 26.6459L81.8791 35.0536H78.7842L81.2975 24.6821Z" fill="white"/>
</g>
<g clip-path="url(#clip1)">
<path fill-rule="evenodd" clip-rule="evenodd" d="M44.1607 41.53L43.5576 42.6198H42.9053C43.3648 41.7953 43.813 41.0361 44.2499 40.3423C44.6868 39.6484 45.1186 38.9933 45.5453 38.377H46.1299C46.1914 38.6831 46.2478 38.9928 46.2991 39.3045C46.3504 39.6167 46.4007 39.9443 46.4499 40.2872C46.4991 40.63 46.5463 40.9938 46.5914 41.3775C46.6366 41.7611 46.6837 42.1749 46.733 42.6203H46.1299C46.1094 42.4366 46.0909 42.252 46.0745 42.0662C46.0581 41.8805 46.0396 41.702 46.0191 41.5305H44.1607V41.53ZM45.9637 41.052C45.9309 40.7219 45.893 40.3928 45.8499 40.0662C45.8068 39.7397 45.7566 39.403 45.6991 39.056C45.5555 39.2642 45.3771 39.5331 45.1637 39.8611C44.9504 40.1902 44.7084 40.5866 44.4376 41.052H45.9637Z" fill="white"/>
<path fill-rule="evenodd" clip-rule="evenodd" d="M48.9144 42.7112C48.6477 42.7112 48.4128 42.6724 48.2097 42.5949C48.0067 42.5173 47.8374 42.4071 47.7021 42.2643C47.5667 42.1219 47.4651 41.949 47.3974 41.7469C47.3297 41.5449 47.2959 41.3173 47.2959 41.0643C47.2959 40.6969 47.3544 40.3459 47.4713 40.0112C47.5882 39.677 47.7544 39.3811 47.9697 39.124C48.1851 38.8668 48.4446 38.6617 48.7482 38.5082C49.0518 38.3551 49.3897 38.2786 49.7636 38.2786C50.0836 38.2786 50.339 38.3112 50.5297 38.3765C50.7205 38.4418 50.8569 38.5031 50.939 38.5602L50.6928 39.05C50.5979 38.9888 50.4703 38.9306 50.3082 38.8755C50.1462 38.8209 49.9544 38.7929 49.7328 38.7929C49.4497 38.7929 49.1954 38.8592 48.9697 38.9923C48.7441 39.125 48.5533 39.2964 48.3974 39.5066C48.2415 39.7168 48.1226 39.9536 48.0405 40.2168C47.9585 40.4801 47.9174 40.7403 47.9174 40.9974C47.9174 41.7934 48.2641 42.1913 48.9574 42.1913C49.1051 42.1913 49.2374 42.1806 49.3544 42.1602C49.4713 42.1403 49.5749 42.1163 49.6651 42.0898C49.7554 42.0633 49.8354 42.0342 49.9051 42.001C49.9749 41.9684 50.0364 41.9398 50.0897 41.9153L50.1636 42.4296C50.1144 42.4582 50.0497 42.4888 49.9697 42.5214C49.8897 42.5541 49.7964 42.5847 49.6897 42.6138C49.5831 42.6423 49.4641 42.6658 49.3328 42.6842C49.2015 42.7025 49.0621 42.7112 48.9144 42.7112Z" fill="white"/>
<path fill-rule="evenodd" clip-rule="evenodd" d="M52.3714 42.7112C52.1047 42.7112 51.8699 42.6724 51.6668 42.5949C51.4637 42.5173 51.2945 42.4071 51.1591 42.2643C51.0237 42.1219 50.9222 41.949 50.8545 41.7469C50.7868 41.5449 50.7529 41.3173 50.7529 41.0643C50.7529 40.6969 50.8114 40.3459 50.9283 40.0112C51.0452 39.677 51.2114 39.3811 51.4268 39.124C51.6422 38.8668 51.9016 38.6617 52.2052 38.5082C52.5088 38.3551 52.8468 38.2786 53.2206 38.2786C53.5406 38.2786 53.796 38.3112 53.9868 38.3765C54.1775 38.4418 54.314 38.5031 54.396 38.5602L54.1499 39.05C54.055 38.9888 53.9273 38.9306 53.7652 38.8755C53.6032 38.8209 53.4114 38.7929 53.1899 38.7929C52.9068 38.7929 52.6524 38.8592 52.4268 38.9923C52.2011 39.125 52.0104 39.2964 51.8545 39.5066C51.6986 39.7168 51.5796 39.9536 51.4975 40.2168C51.4155 40.4801 51.3745 40.7403 51.3745 40.9974C51.3745 41.7934 51.7211 42.1913 52.4145 42.1913C52.5622 42.1913 52.6945 42.1806 52.8114 42.1602C52.9283 42.1403 53.0319 42.1163 53.1222 42.0898C53.2124 42.0633 53.2924 42.0342 53.3622 42.001C53.4319 41.9684 53.4934 41.9398 53.5468 41.9153L53.6206 42.4296C53.5714 42.4582 53.5068 42.4888 53.4268 42.5214C53.3468 42.5541 53.2534 42.5847 53.1468 42.6138C53.0401 42.6423 52.9211 42.6658 52.7899 42.6842C52.6586 42.7025 52.5191 42.7112 52.3714 42.7112Z" fill="white"/>
<path fill-rule="evenodd" clip-rule="evenodd" d="M54.0234 42.6193L55.045 38.3765H57.5619L57.445 38.8724H55.5188L55.2111 40.152H56.9219L56.805 40.6356H55.1004L54.7373 42.1234H56.805L56.6881 42.6193H54.0234H54.0234Z" fill="white"/>
<path fill-rule="evenodd" clip-rule="evenodd" d="M59.3439 38.3337C59.8403 38.3337 60.2146 38.4276 60.467 38.6154C60.7193 38.8031 60.8454 39.0766 60.8454 39.4358C60.8454 39.7133 60.7931 39.9536 60.6885 40.1552C60.5839 40.3572 60.4352 40.5235 60.2423 40.6547C60.0495 40.7853 59.8177 40.8817 59.547 40.945C59.2762 41.0082 58.9746 41.0404 58.6423 41.0404H58.2177L57.8362 42.62H57.2393L58.2485 38.4322C58.4208 38.3914 58.6034 38.3649 58.7962 38.3526C58.989 38.3399 59.1716 38.3337 59.3439 38.3337ZM59.27 38.8358C58.9787 38.8358 58.8023 38.8439 58.7408 38.8603L58.3346 40.5439H58.7223C58.8946 40.5439 59.0711 40.5291 59.2516 40.498C59.4321 40.4674 59.5941 40.4133 59.7377 40.3363C59.8813 40.2587 59.9993 40.1516 60.0916 40.0144C60.1839 39.8776 60.23 39.7016 60.23 39.4853C60.23 39.2526 60.1439 39.0863 59.9716 38.9858C59.7993 38.8858 59.5654 38.8358 59.27 38.8358Z" fill="white"/>
<path fill-rule="evenodd" clip-rule="evenodd" d="M64.4854 38.3765L64.3684 38.8724H63.0823L62.1777 42.6193H61.5808L62.4854 38.8724H61.1992L61.3161 38.3765H64.4854Z" fill="white"/>
<path fill-rule="evenodd" clip-rule="evenodd" d="M63.9316 42.6193L64.9532 38.3765H67.4701L67.3532 38.8724H65.427L65.1193 40.152H66.8301L66.7132 40.6356H65.0086L64.6455 42.1234H66.7132L66.5963 42.6193H63.9316H63.9316Z" fill="white"/>
<path fill-rule="evenodd" clip-rule="evenodd" d="M69.2424 38.3337C69.8742 38.3337 70.346 38.4817 70.6578 38.7776C70.9696 39.0735 71.1255 39.4725 71.1255 39.9746C71.1255 40.3256 71.0701 40.6633 70.9593 40.9873C70.8486 41.3123 70.6762 41.5985 70.4424 41.848C70.2086 42.0965 69.9101 42.295 69.547 42.4419C69.1839 42.5888 68.7501 42.6623 68.2455 42.6623C68.0732 42.6623 67.8865 42.6541 67.6855 42.6378C67.4845 42.6215 67.308 42.5929 67.1562 42.5521L68.147 38.4317C68.3193 38.3909 68.5019 38.3644 68.6947 38.3521C68.8875 38.3399 69.0701 38.3337 69.2424 38.3337ZM69.1932 38.8358C68.8855 38.8358 68.7009 38.8439 68.6393 38.8603L67.8516 42.1297C67.8845 42.1378 67.9398 42.145 68.0178 42.1511C68.0957 42.1572 68.2229 42.1603 68.3993 42.1603C68.7234 42.1603 69.0157 42.1067 69.2762 41.9985C69.5368 41.8904 69.7573 41.7394 69.9378 41.545C70.1183 41.3511 70.2578 41.121 70.3562 40.8536C70.4547 40.5863 70.5039 40.2934 70.5039 39.9751C70.5039 39.6159 70.3993 39.3363 70.1901 39.1358C69.9809 38.9363 69.6486 38.8358 69.1932 38.8358Z" fill="white"/>
<path fill-rule="evenodd" clip-rule="evenodd" d="M75.7229 42.6193H75.126L75.5999 40.6479H73.6245L73.1506 42.6193H72.5537L73.5752 38.3765H74.1722L73.7414 40.152H75.7173L76.1481 38.3765H76.745L75.7229 42.6193Z" fill="white"/>
<path fill-rule="evenodd" clip-rule="evenodd" d="M76.6641 42.6193L77.6856 38.3765H80.2025L80.0851 38.8724H78.1589L77.8512 40.152H79.562L79.4446 40.6356H77.74L77.3774 42.1234H79.4446L79.3271 42.6193H76.6641H76.6641Z" fill="white"/>
<path fill-rule="evenodd" clip-rule="evenodd" d="M81.9845 38.3337C82.4399 38.3337 82.8009 38.4256 83.0676 38.6093C83.3342 38.7929 83.4671 39.0623 83.4671 39.4169C83.4671 39.7761 83.3619 40.0776 83.1507 40.3205C82.9394 40.5633 82.643 40.7378 82.2614 40.8434C82.3107 40.9297 82.3681 41.0388 82.4337 41.1715C82.4994 41.3041 82.5671 41.4511 82.6368 41.6123C82.706 41.773 82.7742 41.9409 82.8399 42.1138C82.9055 42.2878 82.9624 42.4557 83.0122 42.6189H82.403C82.346 42.4638 82.286 42.3067 82.2245 42.1475C82.1635 41.9883 82.1004 41.8353 82.0373 41.6883C81.9732 41.5414 81.9101 41.4036 81.846 41.2751C81.783 41.1465 81.724 41.0327 81.6707 40.9353C81.6173 40.9394 81.564 40.9424 81.5107 40.9445C81.4573 40.9465 81.4045 40.9475 81.3507 40.9475H80.8768L80.4768 42.6189H79.8799L80.8896 38.4312C81.0619 38.3904 81.244 38.3638 81.4373 38.3516C81.6296 38.3399 81.8122 38.3337 81.9845 38.3337ZM81.9107 38.8358C81.6194 38.8358 81.443 38.8439 81.3809 38.8603L80.9932 40.4649H81.3568C81.525 40.4649 81.6973 40.4526 81.8737 40.4281C82.0501 40.4036 82.2112 40.3557 82.3563 40.2843C82.5019 40.2128 82.6209 40.1128 82.7132 39.9843C82.8055 39.8557 82.8522 39.6853 82.8522 39.473C82.8522 39.2445 82.765 39.0812 82.5907 38.9832C82.4163 38.8848 82.1891 38.8358 81.9107 38.8358Z" fill="white"/>
<path fill-rule="evenodd" clip-rule="evenodd" d="M83.5127 42.6193L84.5342 38.3765H87.0512L86.9337 38.8724H85.0076L84.6999 40.152H86.4106L86.2932 40.6356H84.5886L84.226 42.1234H86.2932L86.1758 42.6193H83.5127H83.5127Z" fill="white"/>
</g>
<path fill-rule="evenodd" clip-rule="evenodd" d="M19.2274 35.3419C23.7573 35.3419 27.4295 31.6884 27.4295 27.1817C27.4295 22.6749 23.7573 19.0215 19.2274 19.0215C14.6976 19.0215 11.0254 22.6749 11.0254 27.1817C11.0254 31.6884 14.6976 35.3419 19.2274 35.3419ZM22.8439 26.0184C23.0069 24.9322 22.1757 24.3485 21.0392 23.9587L21.408 22.4868L20.508 22.2633L20.149 23.6965C19.9126 23.6378 19.6695 23.5822 19.4274 23.5276L19.789 22.0853L18.8895 21.8618L18.5203 23.3332C18.3244 23.2888 18.1321 23.245 17.9454 23.1985L17.9464 23.1939L16.7049 22.8858L16.4654 23.8424C16.4654 23.8424 17.1331 23.9944 17.1192 24.0041C17.4839 24.095 17.55 24.3347 17.5387 24.5251L17.1187 26.2011C17.1439 26.2072 17.1762 26.2159 17.2126 26.2312C17.1823 26.223 17.1505 26.2154 17.1172 26.2072L16.5285 28.5562C16.4839 28.6659 16.3705 28.8312 16.1157 28.7684C16.1249 28.7812 15.4613 28.6062 15.4613 28.6062L15.0141 29.6317L16.1854 29.922C16.4033 29.9761 16.6172 30.0332 16.8269 30.0868L16.4546 31.5751L17.3536 31.7985L17.7228 30.3261C17.9685 30.3919 18.2069 30.4536 18.4403 30.5113L18.0726 31.9766L18.9726 32.2001L19.3454 30.7149C20.8808 31.0036 22.0351 30.8873 22.5208 29.5057C22.9126 28.3929 22.5013 27.7516 21.6936 27.3332C22.2823 27.1985 22.7254 26.8138 22.8439 26.0184ZM20.7869 28.8883C20.5085 30.0006 18.6264 29.399 18.0162 29.248L18.5105 27.2766C19.1208 27.4281 21.0777 27.7281 20.7869 28.8883ZM21.0654 26.0026C20.8115 27.0138 19.2449 26.5001 18.7367 26.3745L19.1849 24.5858C19.6931 24.7123 21.3295 24.9475 21.0654 26.0026Z" fill="white"/>
<defs>
<clipPath id="clip0">
<rect width="62" height="17" fill="white" transform="translate(27.7246 18.7537)"/>
</clipPath>
<clipPath id="clip1">
<rect width="45" height="5" fill="white" transform="translate(42.5195 38.1414)"/>
</clipPath>
</defs>
</svg>
