<svg width="101" height="60" viewBox="0 0 101 60" fill="none" xmlns="http://www.w3.org/2000/svg">
<g clip-path="url(#clip0_5771_16749)">
<rect x="0.5" width="100" height="60" rx="4" fill="black"/>
<path d="M82.6499 36.6487C82.6499 36.2216 82.6524 35.7931 82.6473 35.366C82.6461 35.2726 82.6716 35.247 82.765 35.2483C82.9261 35.2509 83.0873 35.2637 83.2484 35.233C83.5912 35.1652 83.8201 34.967 83.9288 34.637C84.0567 34.2457 84.1769 33.8505 84.3048 33.4591C84.3291 33.385 84.315 33.3236 84.2907 33.2545C83.4658 30.9729 81.7853 26.3126 81.761 26.2422C81.8749 26.2422 81.9759 26.2422 82.0769 26.2422C82.4389 26.2422 82.7995 26.2461 83.1615 26.2397C83.2638 26.2384 83.306 26.2678 83.3392 26.3676C83.8776 28.0212 84.4199 29.6736 84.9622 31.3259C84.9737 31.3617 84.989 31.395 85.0108 31.4525C85.1617 30.9896 85.3062 30.5496 85.4507 30.1084C85.8599 28.8563 86.2692 27.6043 86.6733 26.3509C86.7027 26.2601 86.7462 26.2397 86.8345 26.241C87.3051 26.2435 87.7758 26.2397 88.2464 26.2384C88.2464 26.2576 87.9113 27.3421 87.7348 27.8626C87.4918 28.5826 87.2399 29.3001 86.9918 30.0176C86.415 31.6878 85.8344 33.3568 85.2627 35.0283C85.1502 35.357 85.0248 35.6793 84.81 35.9607C84.4941 36.375 84.0759 36.5937 83.5605 36.6372C83.5413 36.6385 83.5221 36.6372 83.508 36.6526C83.2203 36.6487 82.9351 36.6487 82.6499 36.6487Z" fill="white"/>
<path d="M48.8622 23.2701C48.861 23.2598 48.8584 23.2496 48.8571 23.2394C49.3418 23.2394 49.8278 23.2394 50.3125 23.2394C50.3125 23.2496 50.3112 23.2586 50.3112 23.2688C50.2614 23.3148 50.1974 23.3136 50.136 23.3136C49.7703 23.3148 49.4032 23.3148 49.0374 23.3136C48.9761 23.3123 48.9121 23.3174 48.8622 23.2701Z" fill="white"/>
<path d="M43.1499 23.2394C43.1524 23.2483 43.1524 23.2573 43.1512 23.2675C43.0974 23.3212 43.0284 23.3136 42.9632 23.3136C42.6115 23.3148 42.2598 23.3148 41.9068 23.3136C41.8403 23.3136 41.7725 23.3136 41.7175 23.2662C41.7188 23.2573 41.7201 23.2483 41.7213 23.2394C42.1984 23.2394 42.6741 23.2394 43.1499 23.2394Z" fill="white"/>
<path d="M41.7186 23.2664C42.1956 23.2664 42.6739 23.2676 43.151 23.2676C43.417 23.8853 43.6843 24.5018 43.949 25.1195C44.6281 26.7105 45.3047 28.3027 45.9838 29.8937C45.9978 29.9269 46.0017 29.9691 46.0477 29.9934C46.2984 29.3949 46.549 28.7976 46.7984 28.2004C47.4852 26.557 48.172 24.9136 48.8575 23.2702C49.3422 23.2702 49.8256 23.2689 50.3103 23.2689C50.3129 23.3162 50.3167 23.3636 50.3167 23.4109C50.3167 26.7718 50.3154 30.1341 50.3205 33.4951C50.3205 33.6383 50.2796 33.6639 50.1479 33.6613C49.7527 33.6524 49.3575 33.6498 48.9636 33.6626C48.8076 33.6677 48.7833 33.6153 48.7833 33.4746C48.7871 31.4296 48.7871 29.3859 48.7859 27.341C48.7859 27.2911 48.8012 27.2386 48.7603 27.1709C48.7104 27.2911 48.6669 27.3985 48.6234 27.5047C47.9456 29.1685 47.2831 30.7927 46.6117 32.4553C46.5759 32.5448 46.4889 32.6037 46.393 32.6037C46.1001 32.6062 45.9416 32.6024 45.7024 32.6062C45.5988 32.6075 45.5553 32.5679 45.517 32.4771C44.9581 31.1547 44.3941 29.8336 43.8314 28.5124C43.6549 28.0981 43.4771 27.685 43.2993 27.2706C43.2891 27.245 43.2878 27.2143 43.2379 27.1926C43.2379 27.2476 43.2379 27.2949 43.2379 27.3435C43.2379 29.3974 43.2367 31.4514 43.2405 33.5053C43.2405 33.6639 43.1983 33.678 42.9515 33.6511C42.7993 33.6345 42.6445 33.6242 42.4911 33.6242C41.8337 33.623 41.7045 33.7496 41.7045 33.536C41.7071 30.1456 41.7071 26.7565 41.7071 23.3661C41.7096 23.3316 41.7148 23.2983 41.7186 23.2664Z" fill="white"/>
<path d="M57.1345 29.2325C57.077 29.276 57.1077 29.3373 57.1064 29.3885C57.1038 30.762 57.1026 32.1356 57.1077 33.5091C57.1077 33.6396 57.0706 33.6652 56.9491 33.6626C56.5398 33.6549 56.1319 33.6575 55.7226 33.6613C55.6241 33.6626 55.5819 33.6485 55.5819 33.5322C55.5858 30.1533 55.5845 26.7731 55.5832 23.3942C55.5832 23.2971 55.605 23.2664 55.7073 23.2664C57.5706 23.2702 59.4353 23.2689 61.2987 23.2702C61.2999 23.7357 61.2999 24.2012 61.3063 24.6668C61.3076 24.7691 61.2475 24.7525 61.1874 24.7525C60.3702 24.7525 59.5517 24.7525 58.7344 24.7525C58.2357 24.7525 57.7356 24.7563 57.2368 24.7499C57.1269 24.7486 57.1051 24.7819 57.1064 24.8855C57.1102 25.8127 57.1115 26.7386 57.1064 27.6658C57.1051 27.7886 57.132 27.8244 57.2611 27.8244C58.5541 27.8193 59.8471 27.8231 61.1401 27.818C61.2808 27.8167 61.3127 27.8551 61.3089 27.9894C61.2987 28.3449 61.2987 28.7017 61.3089 29.0585C61.3127 29.1915 61.2846 29.2325 61.1414 29.2325C59.8573 29.2261 58.5746 29.2286 57.2906 29.2286C57.2394 29.2261 57.187 29.2299 57.1345 29.2325Z" fill="white"/>
<path d="M67.9938 27.0249C68.1409 26.8855 68.2611 26.7564 68.3967 26.6464C69.2459 25.9634 70.4788 25.9839 71.3791 26.6822C71.9342 27.1132 72.181 27.7002 72.2603 28.3755C72.2833 28.5737 72.2859 28.7732 72.2859 28.9727C72.2846 30.4844 72.2833 31.9973 72.2884 33.509C72.2884 33.6267 72.2603 33.6612 72.1413 33.6587C71.7513 33.651 71.3612 33.651 70.9711 33.6587C70.8573 33.6612 70.8317 33.628 70.8317 33.518C70.8356 32.0626 70.8369 30.6085 70.833 29.1531C70.8317 28.7336 70.7294 28.3435 70.4161 28.0366C70.0043 27.6337 69.5093 27.5506 68.9786 27.7066C68.453 27.8601 68.1511 28.2374 68.0386 28.7694C68.0041 28.9331 67.9938 29.0981 67.9938 29.2656C67.9938 30.6775 67.9926 32.0894 67.9964 33.5026C67.9964 33.6241 67.9734 33.6638 67.8429 33.6612C67.4477 33.651 67.0538 33.6548 66.6587 33.6599C66.5742 33.6612 66.5461 33.642 66.5461 33.5512C66.5487 31.1494 66.5487 28.7489 66.5461 26.3471C66.5461 26.255 66.5768 26.2371 66.6612 26.2384C67.0654 26.2423 67.4695 26.2423 67.8736 26.2384C67.9657 26.2371 67.999 26.2602 67.9951 26.3574C67.9887 26.5722 67.9938 26.7896 67.9938 27.0249Z" fill="white"/>
<path d="M78.2771 29.7924C78.2771 29.0507 78.2784 28.3089 78.2771 27.5671C78.2771 27.3689 78.3091 27.3906 78.0917 27.3894C77.9395 27.3881 77.7873 27.3868 77.6351 27.3894C77.5686 27.3906 77.543 27.3689 77.543 27.2998C77.5456 26.9763 77.5468 26.6527 77.543 26.3304C77.5417 26.2498 77.5763 26.2358 77.6453 26.2371C77.8116 26.2409 77.9791 26.2294 78.1441 26.2409C78.2681 26.2498 78.2797 26.1961 78.2797 26.0938C78.2758 25.2101 78.2822 24.3251 78.2733 23.4414C78.272 23.2904 78.318 23.2636 78.4549 23.2674C78.8309 23.2764 79.2056 23.2751 79.5816 23.2687C79.6877 23.2674 79.7172 23.293 79.7159 23.4017C79.7108 24.2995 79.7146 25.1986 79.7108 26.0964C79.7108 26.2038 79.7299 26.2447 79.8489 26.2409C80.1149 26.2307 80.3809 26.2409 80.6482 26.2358C80.7339 26.2345 80.7748 26.2486 80.7722 26.3496C80.7659 26.6578 80.7671 26.9673 80.7722 27.2768C80.7735 27.3625 80.7531 27.3919 80.6623 27.3906C80.3911 27.3842 80.12 27.3932 79.8489 27.3868C79.7478 27.3842 79.7108 27.406 79.7108 27.5185C79.7146 28.9023 79.7133 30.2848 79.7146 31.6686C79.7146 31.7632 79.7248 31.8591 79.7478 31.9499C79.7952 32.1367 79.9422 32.2415 80.166 32.2505C80.3323 32.2582 80.4986 32.2569 80.6648 32.2518C80.7416 32.2492 80.7723 32.2658 80.771 32.3515C80.7671 32.7557 80.7684 33.1598 80.7697 33.5639C80.7697 33.6125 80.7774 33.6598 80.7019 33.6573C80.3272 33.6445 79.9486 33.6931 79.579 33.6112C78.7912 33.4373 78.2835 32.7876 78.2784 31.9448C78.2745 31.2286 78.2771 30.5112 78.2771 29.7924Z" fill="white"/>
<path d="M52.2244 29.9383C52.2244 28.7502 52.2256 27.5621 52.2218 26.374C52.2218 26.2653 52.2435 26.2307 52.3586 26.2333C52.7577 26.241 53.158 26.2397 53.557 26.2346C53.6478 26.2333 53.6772 26.255 53.6772 26.3509C53.6746 28.7463 53.6746 31.1417 53.6772 33.5371C53.6772 33.6292 53.6542 33.6574 53.5595 33.6561C53.1605 33.651 52.7602 33.6497 52.3612 33.6561C52.2499 33.6586 52.2218 33.6292 52.2218 33.5167C52.2269 32.3235 52.2244 31.1302 52.2244 29.9383Z" fill="white"/>
<path d="M64.6401 29.9537C64.6401 31.1367 64.6375 32.321 64.6439 33.504C64.6452 33.6344 64.6068 33.6574 64.4866 33.6549C64.0966 33.6472 63.7065 33.6498 63.3164 33.6536C63.2231 33.6549 63.186 33.6395 63.186 33.5334C63.1898 31.138 63.1885 28.7426 63.186 26.3472C63.186 26.2474 63.2205 26.2321 63.3087 26.2334C63.7129 26.2372 64.117 26.2398 64.5212 26.2321C64.6273 26.2308 64.6414 26.2666 64.6414 26.3613C64.6388 27.5583 64.6401 28.7567 64.6401 29.9537Z" fill="white"/>
<path d="M75.6326 29.9448C75.6326 31.1278 75.6301 32.3121 75.6352 33.495C75.6352 33.6178 75.6007 33.6434 75.4843 33.6408C75.0942 33.6332 74.7041 33.6357 74.3141 33.6396C74.2182 33.6408 74.1836 33.6191 74.1836 33.5155C74.1862 31.1252 74.1862 28.7337 74.1836 26.3434C74.1836 26.2385 74.2194 26.2181 74.3154 26.2193C74.7054 26.2244 75.0955 26.2257 75.4856 26.2181C75.6019 26.2155 75.6352 26.2436 75.6352 26.3651C75.6314 27.5583 75.6326 28.7516 75.6326 29.9448Z" fill="white"/>
<path d="M17.6138 33.6575C16.9181 33.6575 16.349 33.0896 16.3554 32.4003C16.3618 31.7058 16.9258 31.1444 17.6202 31.1418C18.3121 31.1406 18.8774 31.702 18.8863 32.3977C18.8927 33.0922 18.3211 33.6575 17.6138 33.6575Z" fill="white"/>
<path d="M21.6431 31.712C21.6431 32.3246 21.1533 32.8183 20.542 32.8208C19.9255 32.8234 19.4293 32.3246 19.4319 31.7056C19.4344 31.0956 19.9306 30.6032 20.542 30.6045C21.1533 30.6071 21.6431 31.0982 21.6431 31.712Z" fill="white"/>
<path d="M29.1788 26.2117C28.5816 26.2117 28.1084 25.741 28.1084 25.1489C28.1084 24.5593 28.5867 24.0823 29.1788 24.0823C29.7722 24.0823 30.2493 24.5568 30.2493 25.1489C30.2493 25.741 29.7761 26.2117 29.1788 26.2117Z" fill="white"/>
<path d="M32.101 25.5209C31.4616 25.5209 30.9539 25.017 30.9539 24.3827C30.9539 23.7509 31.4667 23.2406 32.0998 23.2406C32.7354 23.2406 33.2457 23.7483 33.2457 24.3827C33.2469 25.017 32.7405 25.5209 32.101 25.5209Z" fill="white"/>
<path d="M33.7599 25.2245C33.7599 24.6937 34.1794 24.2717 34.7063 24.2704C35.2294 24.2691 35.6617 24.695 35.6681 25.2168C35.6744 25.7424 35.2371 26.1785 34.7063 26.1772C34.1781 26.1772 33.7599 25.7552 33.7599 25.2245Z" fill="white"/>
<path d="M15.841 31.5945C15.841 32.1329 15.4343 32.5448 14.8997 32.5448C14.36 32.546 13.9329 32.1227 13.9392 31.5932C13.9456 31.0638 14.3677 30.6443 14.8933 30.6443C15.4241 30.643 15.841 31.0612 15.841 31.5945Z" fill="white"/>
<path d="M22.8774 29.3397C23.3838 29.3372 23.7956 29.7439 23.7995 30.249C23.802 30.7504 23.3915 31.166 22.8863 31.1699C22.3824 31.1737 21.9706 30.7644 21.9681 30.258C21.9655 29.7477 22.3671 29.3436 22.8774 29.3397Z" fill="white"/>
<path d="M26.7771 25.7741C27.258 25.7779 27.6429 26.1731 27.6366 26.6527C27.6289 27.1489 27.2401 27.5236 26.7349 27.5185C26.2604 27.5147 25.8755 27.1131 25.8832 26.6309C25.8896 26.1424 26.2796 25.7702 26.7771 25.7741Z" fill="white"/>
<path d="M24.9585 29.3204C24.484 29.3217 24.1169 28.9559 24.1182 28.484C24.1195 28.0223 24.4904 27.6514 24.9521 27.6502C25.4125 27.6476 25.7898 28.0198 25.7923 28.4776C25.7949 28.9534 25.4317 29.3204 24.9585 29.3204Z" fill="white"/>
<path d="M36.8458 27.4162C36.8458 27.8779 36.4711 28.2577 36.0184 28.2552C35.549 28.2526 35.1807 27.8792 35.1819 27.4098C35.1832 26.9353 35.5477 26.5759 36.0248 26.5785C36.4903 26.5798 36.8471 26.943 36.8458 27.4162Z" fill="#2C98CD"/>
<path d="M14.4204 27.2666C14.4191 27.6963 14.0917 28.0186 13.6582 28.0147C13.2361 28.0122 12.8947 27.6682 12.9011 27.2512C12.9075 26.833 13.2566 26.4916 13.6722 26.4954C14.093 26.5005 14.4217 26.8381 14.4204 27.2666Z" fill="#2C98CD"/>
<path d="M14.4252 29.5749C14.4239 30.0481 14.0632 30.4011 13.5862 30.3986C13.1207 30.3947 12.746 30.0174 12.7536 29.5596C12.7613 29.1005 13.145 28.7245 13.6015 28.7283C14.0658 28.7334 14.4264 29.1043 14.4252 29.5749Z" fill="#2C98CD"/>
<path d="M36.6988 29.6811C36.6962 30.0827 36.3714 30.4037 35.9698 30.4012C35.572 30.3986 35.2408 30.0623 35.2498 29.6684C35.2587 29.2757 35.5887 28.9496 35.9762 28.9522C36.3752 28.9534 36.7013 29.2821 36.6988 29.6811Z" fill="#2C98CD"/>
<path d="M15.5324 25.6425C15.5337 26.0518 15.2204 26.3728 14.8175 26.3728C14.4211 26.3741 14.0949 26.0441 14.0949 25.6438C14.0949 25.2486 14.4134 24.9264 14.8086 24.9225C15.2101 24.9187 15.5324 25.2384 15.5324 25.6425Z" fill="#2C98CD"/>
<path d="M16.4262 23.8915C16.7894 23.8915 17.0695 24.1677 17.0733 24.5284C17.0759 24.8941 16.7907 25.1806 16.4249 25.1793C16.0694 25.1781 15.7829 24.889 15.7829 24.5335C15.7842 24.1754 16.0694 23.8915 16.4262 23.8915Z" fill="#2C98CD"/>
<path d="M33.2536 31.6841C33.6104 31.6854 33.8982 31.9718 33.8982 32.3261C33.8982 32.6791 33.6079 32.9707 33.2549 32.9719C32.8942 32.9732 32.6103 32.6944 32.6077 32.335C32.6052 31.9642 32.884 31.6841 33.2536 31.6841Z" fill="#2C98CD"/>
<path d="M35.4259 31.2938C35.4246 31.6557 35.1445 31.9371 34.7864 31.9371C34.4334 31.9358 34.1406 31.6481 34.1354 31.2951C34.1316 30.9408 34.4347 30.6416 34.7915 30.6467C35.1573 30.6518 35.4271 30.928 35.4259 31.2938Z" fill="#2C98CD"/>
<path d="M18.1253 24.755C17.8069 24.7576 17.5524 24.5094 17.5485 24.1936C17.546 23.8841 17.803 23.6206 18.1138 23.6142C18.4195 23.6091 18.6868 23.8725 18.6906 24.182C18.6932 24.4992 18.4425 24.7524 18.1253 24.755Z" fill="#2C98CD"/>
<path d="M31.5687 32.1074C31.8833 32.11 32.1302 32.3568 32.1314 32.6689C32.1327 32.9924 31.8757 33.2406 31.5457 33.2354C31.2336 33.2303 30.9894 32.9809 30.9919 32.6676C30.9932 32.3492 31.2452 32.1049 31.5687 32.1074Z" fill="#2C98CD"/>
<path d="M21.568 24.8826C21.5667 25.1512 21.348 25.3725 21.0794 25.375C20.8096 25.3776 20.5755 25.1448 20.5781 24.8763C20.5806 24.6115 20.8057 24.3864 21.0705 24.3852C21.3454 24.3826 21.5692 24.6064 21.568 24.8826Z" fill="#2C99CD"/>
<path d="M29.9373 33.0498C29.6687 33.0447 29.4539 32.8235 29.4551 32.5536C29.4564 32.2812 29.6905 32.0536 29.959 32.0612C30.225 32.0702 30.4476 32.2978 30.4437 32.56C30.4412 32.8324 30.211 33.0549 29.9373 33.0498Z" fill="#2C98CD"/>
<path d="M19.6609 23.8558C19.9448 23.8571 20.1494 24.0681 20.1456 24.3533C20.1418 24.6206 19.9192 24.838 19.6519 24.8355C19.3821 24.8329 19.1685 24.6168 19.1659 24.3444C19.1621 24.0669 19.377 23.8546 19.6609 23.8558Z" fill="#2C98CD"/>
<path d="M22.2622 26.0964C22.0026 26.0951 21.8171 25.9046 21.8184 25.6424C21.8197 25.384 22.0141 25.1935 22.2724 25.1973C22.5307 25.2012 22.72 25.3943 22.7187 25.6526C22.7162 25.9097 22.5231 26.0977 22.2622 26.0964Z" fill="#2C98CD"/>
<path d="M28.5901 32.4294C28.3331 32.4256 28.1489 32.2312 28.154 31.9678C28.1579 31.712 28.3574 31.5227 28.6157 31.5304C28.8728 31.5368 29.0582 31.7324 29.0531 31.9933C29.0506 32.2491 28.8536 32.4333 28.5901 32.4294Z" fill="#2C98CD"/>
<path d="M27.3679 30.8807C27.6058 30.8795 27.7861 31.0508 27.7912 31.2836C27.7964 31.5087 27.6109 31.7018 27.382 31.7082C27.1543 31.7146 26.9663 31.5304 26.9638 31.2977C26.9599 31.056 27.1275 30.8833 27.3679 30.8807Z" fill="#2C99CD"/>
<path d="M23.3101 26.1168C23.5429 26.1194 23.7206 26.3036 23.7168 26.5376C23.7142 26.7678 23.5237 26.952 23.2947 26.9469C23.0645 26.9417 22.8817 26.7525 22.8855 26.5235C22.8906 26.2933 23.0773 26.1143 23.3101 26.1168Z" fill="#2C99CD"/>
<path d="M52.9462 25.0312C53.4335 25.0312 53.8286 24.6362 53.8286 24.1488C53.8286 23.6614 53.4335 23.2664 52.9462 23.2664C52.4588 23.2664 52.0637 23.6614 52.0637 24.1488C52.0637 24.6362 52.4588 25.0312 52.9462 25.0312Z" fill="white"/>
<path d="M63.9149 25.0312C64.4022 25.0312 64.7973 24.6362 64.7973 24.1488C64.7973 23.6614 64.4022 23.2664 63.9149 23.2664C63.4275 23.2664 63.0324 23.6614 63.0324 24.1488C63.0324 24.6362 63.4275 25.0312 63.9149 25.0312Z" fill="white"/>
<path d="M74.911 25.0312C75.3983 25.0312 75.7934 24.6362 75.7934 24.1488C75.7934 23.6614 75.3983 23.2664 74.911 23.2664C74.4236 23.2664 74.0285 23.6614 74.0285 24.1488C74.0285 24.6362 74.4236 25.0312 74.911 25.0312Z" fill="white"/>
</g>
<defs>
<clipPath id="clip0_5771_16749">
<rect width="100" height="60" fill="white" transform="translate(0.5)"/>
</clipPath>
</defs>
</svg>
