<svg width="100" height="60" viewBox="0 0 100 60" fill="none" xmlns="http://www.w3.org/2000/svg">
<rect width="100" height="60" rx="4" fill="#8DC640"/>
<path fill-rule="evenodd" clip-rule="evenodd" d="M84.6538 29.1381C84.2009 29.4489 83.5434 29.6025 82.6439 29.6025H82.2535H81.7518L82.4359 25.9657H82.7825H83.0919C83.8385 25.9657 84.384 26.084 84.7598 26.3241C85.0535 26.5124 85.4016 26.8851 85.4016 27.5925C85.4016 28.4447 84.9966 28.9032 84.6538 29.1381ZM31.4371 33.7024H24.5333L24.9795 31.3252H29.3098L29.8019 28.6477H25.5132L25.9278 26.295H32.8195L31.4371 33.7024ZM88.3729 24.2545C87.3578 23.5696 85.8218 23.2245 83.808 23.2245H78.5337L76.5731 33.7028H69.664L70.107 31.3256H74.2695L74.7644 28.6554L70.6044 28.6628L71.0499 26.2957H75.3365L75.9068 23.2248H67.1993L65.3383 33.1652H62.1454L64.0199 23.2248H59.4677L57.6067 33.1652H54.4935L56.3697 23.2248H51.8222L49.8567 33.7031H42.8985L43.3369 31.3259H47.5182L48.0106 28.6712L43.8357 28.6673L44.2791 26.2957H48.6133L49.1808 23.2248H22.0529L20.5088 31.5286L17.4325 23.2245H12.7111L10.1699 36.7754H14.6787L16.2165 28.2435L19.2021 36.7754H35.3628L37.3273 26.2954H39.856L37.8905 36.7754H80.4142L81.6458 30.1594L83.6423 36.7754H88.1536L86.0867 31.3697L86.5585 31.2692C87.5982 31.0501 88.4121 30.578 88.9767 29.8706C89.5424 29.1566 89.8297 28.24 89.8297 27.1389C89.83 25.8565 89.3543 24.9136 88.3729 24.2545Z" fill="white"/>
</svg>
