<svg width="100" height="60" viewBox="0 0 100 60" fill="none" xmlns="http://www.w3.org/2000/svg">
<g clip-path="url(#clip0_30_100)">
<rect width="100" height="60" rx="4" fill="#008AC9"/>
<path d="M25.8502 29.5172C25.8428 29.2565 25.7161 29.1223 25.4777 29.1149H24.1963C23.8908 29.1298 23.7344 29.3012 23.7269 29.6141V31.9162C23.7344 32.2365 23.9057 32.4004 24.241 32.4153H25.4107C25.5299 32.4153 25.6342 32.3706 25.7161 32.2812C25.7981 32.2142 25.8428 32.1248 25.8428 32.013V29.5172H25.8502ZM22.0879 29.1969C22.0953 28.6232 22.222 28.1836 22.4753 27.8856C22.602 27.759 22.7659 27.6547 22.967 27.5653C23.1756 27.4759 23.3693 27.4312 23.563 27.4312H25.9099C26.9454 27.4386 27.4744 28.0048 27.4893 29.1298V32.5941C27.4818 32.9965 27.3254 33.3392 27.0199 33.6297C26.7219 33.9352 26.3643 34.0916 25.9471 34.0991H23.7269V36.5949H22.0804V29.1969" fill="white"/>
<path d="M30.4619 32.0802C30.4619 32.1771 30.5066 32.2516 30.596 32.3112C30.6705 32.3782 30.7748 32.4155 30.894 32.4155H32.1531C32.4362 32.4155 32.5852 32.3037 32.5927 32.0802V31.6108C32.5927 31.3501 32.4437 31.2234 32.1382 31.2234H30.8866C30.7227 31.2234 30.6109 31.2532 30.5439 31.3054C30.4843 31.365 30.4545 31.4842 30.4545 31.663V32.0802H30.4619ZM32.5927 29.4801C32.6001 29.2268 32.4511 29.1076 32.1531 29.115H28.8452V27.4238H32.5703C33.6581 27.4387 34.2094 27.9677 34.2243 29.0033V32.5347C34.2168 32.9817 34.0753 33.3467 33.8145 33.6447C33.5388 33.9502 33.1812 34.0992 32.7417 34.0992H30.4917C29.3965 34.0918 28.8378 33.5926 28.8229 32.5943V31.2309C28.8303 30.1879 29.3593 29.6589 30.4172 29.644H32.6001V29.4801" fill="white"/>
<path d="M38.8434 34.9113C38.9701 34.9038 39.0893 34.8591 39.1787 34.7697C39.2681 34.6878 39.3128 34.5984 39.3128 34.5015V34.0992H37.2118C36.9361 34.0992 36.7201 34.062 36.5562 33.9949C36.3848 33.9279 36.2135 33.8161 36.0347 33.6448C35.8708 33.4659 35.7516 33.2797 35.6771 33.086C35.6026 32.9072 35.5653 32.6837 35.5653 32.408V27.4238H37.2118V31.8716C37.2118 32.2292 37.3608 32.408 37.6514 32.408H38.8136C38.9552 32.408 39.0744 32.3633 39.1712 32.2739C39.2681 32.192 39.3128 32.1026 39.3128 31.9908V27.4238H40.9444V34.7772C40.9369 35.321 40.7954 35.7606 40.5271 36.0884C40.2515 36.4162 39.879 36.5876 39.4022 36.595H35.5653V34.9038H38.8434" fill="white"/>
<path d="M42.2332 32.4079H45.1611C45.4293 32.4004 45.5708 32.2887 45.5783 32.0875V31.9385C45.5783 31.8938 45.5634 31.8491 45.541 31.797C45.474 31.6703 45.392 31.6033 45.3026 31.6033H43.8498C43.4177 31.5958 43.0527 31.4468 42.7398 31.1563C42.4269 30.888 42.2704 30.5677 42.2555 30.1803V28.9286C42.2704 27.9452 42.8068 27.4461 43.8573 27.4312H47.2546V29.1223H44.3788C44.0436 29.1223 43.8722 29.2267 43.8722 29.4353V29.5992C43.8722 29.8152 44.0436 29.9195 44.3937 29.9195H45.8391C46.2265 29.927 46.5543 30.076 46.8299 30.3665C47.1056 30.6571 47.2471 30.9998 47.262 31.4021V32.6314C47.2546 32.9741 47.0907 33.3243 46.7852 33.667C46.6362 33.8383 46.4798 33.9501 46.3308 34.0171C46.1743 34.0767 45.9583 34.1065 45.6826 34.1065H42.2481V32.4079" fill="white"/>
<path d="M50.0634 32.0802C50.0634 32.1771 50.1081 32.2516 50.1975 32.3112C50.272 32.3782 50.3688 32.4155 50.4955 32.4155H51.762C52.0451 32.4155 52.1941 32.3037 52.2016 32.0802V31.6108C52.2016 31.3501 52.0526 31.2234 51.7471 31.2234H50.4955C50.3316 31.2234 50.2198 31.2532 50.1528 31.3054C50.0932 31.365 50.0634 31.4842 50.0634 31.663V32.0802ZM52.2016 29.4801C52.209 29.2268 52.06 29.1076 51.7546 29.115H48.4467V27.4238H52.1718C53.2595 27.4387 53.8108 27.9677 53.8257 29.0033V32.5347C53.8183 32.9817 53.6767 33.3467 53.416 33.6447C53.1403 33.9502 52.7827 34.0992 52.3431 34.0992H50.0857C48.9905 34.0918 48.4318 33.5926 48.4169 32.5943V31.2309C48.4243 30.1879 48.9533 29.6589 50.0112 29.644H52.2016V29.4801Z" fill="white"/>
<path d="M55.1667 26.4702C55.1742 26.0157 55.3456 25.6506 55.6734 25.375C55.9937 25.0993 56.4109 24.9503 56.9324 24.9429H57.9755V26.5745H57.3422C56.992 26.5819 56.8207 26.7458 56.8132 27.0736V27.4312H57.9755V29.1224H56.8132V34.1066H55.1667V26.4702Z" fill="white"/>
<path d="M62.6466 29.4503V29.413C62.6466 29.3236 62.6094 29.2491 62.5423 29.197C62.4678 29.1448 62.3709 29.115 62.2592 29.115H61.1119C60.9629 29.115 60.8437 29.1597 60.7543 29.2417C60.6425 29.3162 60.5829 29.4205 60.5829 29.5471V30.2251L62.6466 29.4503ZM60.6127 31.8343V31.9387C60.6127 32.0728 60.6499 32.1845 60.717 32.259C60.7692 32.3559 60.8362 32.408 60.9331 32.408H64.308V34.0992H60.717C60.3892 34.0992 60.1359 34.0694 59.9571 34.0098C59.7634 33.9428 59.5846 33.8385 59.4281 33.6895C59.2493 33.5106 59.1227 33.3318 59.0631 33.1381C58.996 32.9444 58.9587 32.6837 58.9587 32.3633L58.9438 28.9809C58.9587 27.9602 59.4952 27.4387 60.5456 27.4238H62.7584C63.779 27.4387 64.3006 27.9826 64.3155 29.0405V30.3741L60.6127 31.8343Z" fill="white"/>
<path d="M67.8022 34.099C67.5564 34.099 67.3254 34.0766 67.1168 34.0319C66.9007 33.9947 66.6847 33.8978 66.4686 33.7265C66.2451 33.5328 66.0887 33.3093 65.9993 33.0634C65.9099 32.825 65.8652 32.5494 65.8652 32.2513V29.1074C65.8577 28.854 65.8801 28.6231 65.9397 28.4294C65.9918 28.2357 66.111 28.042 66.2898 27.8557C66.491 27.662 66.6921 27.5279 66.9082 27.4609C67.1168 27.4087 67.3477 27.3789 67.6085 27.3789H70.1267V27.7738H67.6681C67.236 27.7738 66.8933 27.8632 66.64 28.042C66.3867 28.2357 66.2526 28.5709 66.2526 29.0478V32.1992C66.2526 32.4227 66.2898 32.6388 66.3569 32.8474C66.4239 33.0485 66.5431 33.2348 66.707 33.3912C66.8858 33.5253 67.0646 33.6147 67.236 33.6445C67.4148 33.6818 67.6085 33.7041 67.8171 33.7041H70.1639V34.099H67.8022Z" fill="white"/>
<path d="M76.6083 30.0088H73.3079C72.913 30.0163 72.6001 30.1429 72.3766 30.3739C72.1457 30.6123 72.0339 30.9401 72.0339 31.3573V32.3631C72.0339 32.5568 72.0562 32.7356 72.0935 32.8995C72.1382 33.0709 72.2351 33.2199 72.399 33.3465C72.6821 33.5849 73.0024 33.6967 73.3451 33.6967H75.3492C76.1837 33.6892 76.6083 33.2497 76.6083 32.3705V30.0088ZM77.0032 32.2811C77.0032 32.5345 76.9808 32.758 76.951 32.9517C76.8989 33.1677 76.7871 33.3689 76.6232 33.5626C76.2805 33.9276 75.8484 34.1064 75.3418 34.0915H73.3749C72.8609 34.0915 72.4511 33.9425 72.1308 33.6371C71.8029 33.3391 71.639 32.9219 71.639 32.3854V31.3722C71.6539 30.2249 72.2276 29.6363 73.3526 29.614H76.6232V29.167C76.6232 28.8019 76.5189 28.4815 76.3029 28.2059C76.1688 28.0271 76.0123 27.9079 75.8335 27.8483C75.6547 27.8036 75.4461 27.7738 75.2226 27.7738H71.6539V27.3789H75.0289C75.3418 27.3789 75.6174 27.4013 75.8708 27.446C75.9974 27.4683 76.1166 27.5205 76.2284 27.595C76.3476 27.662 76.4519 27.7663 76.5487 27.9004C76.8542 28.2953 77.0032 28.7423 76.9957 29.2489V32.2811" fill="white"/>
<path d="M80.6986 27.7738C79.7822 27.7887 79.3277 28.2878 79.3501 29.2713V34.0915H78.9552V29.2787C78.9403 28.0122 79.5363 27.3789 80.7656 27.3789H81.2052V27.7738H80.6986Z" fill="white"/>
<path d="M87.3517 27.7814H84.2375C84.014 27.7814 83.8128 27.8037 83.634 27.8559C83.4478 27.9006 83.2615 28.0123 83.0901 28.1986C82.9262 28.3699 82.8219 28.5413 82.7772 28.7052C82.7176 28.8766 82.6953 29.0777 82.7027 29.3161V32.3931C82.7027 32.9071 82.8517 33.2498 83.1497 33.4361C83.2988 33.5255 83.4627 33.5851 83.6415 33.6298C83.8203 33.6745 84.0289 33.7043 84.2524 33.7043H85.6083C86.1149 33.7043 86.5322 33.5851 86.8525 33.3541C87.1729 33.1306 87.3368 32.7507 87.3517 32.2068V27.7814ZM87.7391 32.2292C87.7018 33.5031 87.0313 34.129 85.7201 34.0992H84.2598C83.9544 34.0992 83.6787 34.0694 83.4329 34.0172C83.1795 33.9501 82.9411 33.8011 82.7102 33.5627C82.5388 33.3467 82.4271 33.1306 82.3824 32.9071C82.3228 32.6836 82.293 32.4378 82.3079 32.1696V29.3087C82.3228 28.0198 82.9784 27.3716 84.2598 27.3865H87.3517V25.2036H87.7465V32.2292" fill="white"/>
<path d="M12.9537 27.1702C13.0803 27.1106 13.2144 27.0659 13.3411 27.0436C13.5795 25.9111 14.5853 25.0618 15.7848 25.0618C16.9917 25.0618 17.9975 25.9111 18.2284 27.0436C18.6009 27.1106 18.9064 27.2596 19.1373 27.4831C19.1448 27.2671 19.1373 27.0585 19.115 26.8573C18.966 25.1438 17.5281 23.8027 15.7773 23.8027C13.9818 23.8102 12.5141 25.2332 12.4396 27.0212C12.4322 27.1777 12.4247 27.3341 12.4322 27.5055C12.5812 27.3714 12.7525 27.2596 12.9537 27.1702Z" fill="#E3001B"/>
<path d="M17.7443 27.4238H13.7287C13.535 27.4238 13.3338 27.4685 13.1327 27.5579C12.9315 27.6473 12.7676 27.7516 12.641 27.8783C12.3951 28.1763 12.261 28.6159 12.2535 29.1895V32.3261C12.261 32.8997 12.3876 33.3393 12.641 33.6373C12.7751 33.764 12.9315 33.8683 13.1327 33.9577C13.3413 34.0471 13.5424 34.0918 13.7287 34.0918H17.7443C18.7799 34.0843 19.3089 33.5106 19.3238 32.3857V29.1299C19.3089 28.0049 18.7799 27.4313 17.7443 27.4238Z" fill="#E3001B"/>
</g>
<defs>
<clipPath id="clip0_30_100">
<rect width="100" height="60" fill="white"/>
</clipPath>
</defs>
</svg>
