<svg width="55" height="55" viewBox="0 0 55 55" fill="none" xmlns="http://www.w3.org/2000/svg">
<circle cx="27.5" cy="27.5" r="27.5" fill="black"/>
<path d="M43.1252 16.4204H37.8521C34.6073 16.4204 31.1933 18.8133 30.1761 22.0581L26.744 33.2187C25.7248 36.4615 27.4731 39.1182 30.7179 39.1182H35.993C39.2359 39.1182 42.811 36.4454 43.8322 33.2026L47.222 22.0863C48.2392 18.8415 46.3721 16.4204 43.1292 16.4204H43.1252ZM37.9065 33.4845H32.5126C32.4461 33.4845 32.3977 33.4201 32.4179 33.3556L35.9246 22.1447C35.9366 22.1044 35.9749 22.0762 36.0192 22.0762H41.3709C41.4373 22.0762 41.4857 22.1407 41.4655 22.2051L38.0012 33.4161C37.9891 33.4564 37.9508 33.4845 37.9065 33.4845Z" fill="#DB0819"/>
<path d="M28.1136 22.0864H17.1203C17.078 22.0864 17.0397 22.1146 17.0256 22.1548L13.527 33.3416C13.5068 33.4061 13.5552 33.4705 13.6216 33.4705H18.8645C18.9068 33.4705 18.9451 33.4423 18.9592 33.402L19.92 30.2418C19.9401 30.1773 19.8918 30.1129 19.8253 30.1129H17.513C17.4466 30.1129 17.3982 30.0484 17.4184 29.984L18.8424 25.5689C18.8545 25.5286 18.8927 25.5004 18.937 25.5004H26.9837C27.0501 25.5004 27.0985 25.5649 27.0783 25.6293L24.6875 33.4081C23.6965 36.5603 20.5907 39.1404 17.4365 39.1404H11.7062C8.55398 39.1404 6.78554 36.5603 7.7745 33.4081L11.3778 21.9434C12.3688 18.7912 15.7003 16.4346 18.8504 16.4346H29.8559C29.9223 16.4346 29.9707 16.499 29.9505 16.5635L28.2083 22.0199C28.1962 22.0602 28.1579 22.0884 28.1136 22.0884V22.0864Z" fill="#DB0819"/>
</svg>
