<svg width="55" height="55" viewBox="0 0 55 55" fill="none" xmlns="http://www.w3.org/2000/svg">
<circle cx="27.5" cy="27.5" r="27.5" fill="black"/>
<path d="M39.8233 28.5278L37.1511 33.6741V36.6132H35.8501V33.6741L33.1662 28.5278H34.6664L36.5064 32.2695L38.3465 28.5278H39.8233Z" fill="white"/>
<path d="M32.6153 34.8658H29.2282L28.6188 36.6128H27.2358L30.1893 28.6572H31.6777L34.6195 36.6128H33.2365L32.6153 34.8658ZM32.252 33.8507L30.9276 30.0736L29.6033 33.8507H32.252Z" fill="white"/>
<path d="M23.9073 35.5981H26.6849V36.6132H22.618V28.5278H23.919V35.5981H23.9073Z" fill="white"/>
<path d="M17.4612 33.4735V36.6132H16.1719V28.5278H18.9027C19.8286 28.5278 20.5201 28.7521 20.9889 29.1888C21.4577 29.6374 21.6921 30.2393 21.6921 31.0066C21.6921 31.7738 21.4577 32.3758 20.9772 32.8125C20.4967 33.2492 19.8052 33.4735 18.9027 33.4735H17.4612ZM20.3678 31.0184C20.3678 30.558 20.2388 30.2157 19.9927 29.9679C19.7349 29.7318 19.3364 29.6019 18.7738 29.6019H17.4729V32.4112H18.7738C19.8286 32.4112 20.3678 31.9508 20.3678 31.0184Z" fill="white"/>
<path d="M27.1068 6.54955C23.5673 9.24074 24.1885 13.3602 24.1885 13.3602C24.1885 13.3602 21.9617 7.55285 19.0785 4C18.6917 8.56794 20.1099 14.6231 20.1099 14.6231C20.1099 14.6231 18.305 10.8696 13.8748 10.6572C17.5432 12.7818 18.973 16.6061 19.2895 17.633C21.4811 16.2756 23.9775 15.5084 26.5443 15.4258C26.2747 14.4815 25.2433 10.4565 27.1068 6.54955Z" fill="#F19021"/>
<path d="M27.5639 17.019C19.3481 17.019 12.6793 23.7352 12.6793 32.0094C12.6793 40.2837 19.3481 46.9999 27.5639 46.9999C35.7798 46.9999 42.4486 40.2837 42.4486 32.0094C42.4486 23.7234 35.7798 17.019 27.5639 17.019ZM27.5639 45.43C20.2037 45.43 14.2381 39.422 14.2381 32.0213C14.2381 24.6205 20.2037 18.6007 27.5522 18.6007C34.9008 18.6007 40.878 24.5969 40.878 32.0094C40.878 39.422 34.9125 45.43 27.5639 45.43Z" fill="#F19021"/>
<path d="M29.5094 20.7609C24.8917 21.0441 26.9662 27.1111 32.0761 26.7924C37.0689 26.4737 34.4319 20.454 29.5094 20.7609Z" fill="#F19021"/>
</svg>
