<svg width="55" height="55" viewBox="0 0 55 55" fill="none" xmlns="http://www.w3.org/2000/svg">
<circle cx="27.5" cy="27.5" r="27.5" fill="black"/>
<path d="M22.41 14.3389C25.5818 14.1195 28.799 14.314 31.991 14.2441C32.2326 14.2216 32.4764 14.2471 32.7078 14.3193C32.9392 14.3916 33.154 14.5094 33.3387 14.665C33.5235 14.8208 33.6751 15.0119 33.784 15.2266C33.8929 15.4412 33.9567 15.6754 33.9725 15.915C35.3452 23.5144 35.358 31.2931 34.0086 38.8965C33.9911 39.1779 33.9127 39.4525 33.7801 39.7021C33.6475 39.9517 33.4634 40.1709 33.2391 40.3447C33.0146 40.5186 32.7551 40.6433 32.4783 40.7109C32.2016 40.7785 31.9131 40.7879 31.6326 40.7373C28.7281 40.7373 25.8184 40.7822 22.9139 40.7373C22.4633 40.7226 22.0332 40.5467 21.7039 40.2422C21.3746 39.9376 21.1688 39.5247 21.1238 39.0811C19.7446 31.4025 19.7446 23.5438 21.1238 15.8652C21.1504 15.5672 21.2514 15.2801 21.4178 15.0303C21.5841 14.7805 21.8107 14.5754 22.077 14.4336C22.1803 14.3804 22.2938 14.3481 22.41 14.3389ZM26.3182 26.584L27.3514 30.4785L27.5281 31.1416L27.6795 30.583L27.7547 30.2988L27.9666 29.4961L28.0018 29.3613L28.1942 28.6387L28.9656 25.751L26.0955 25.7461L26.3182 26.584ZM22.4998 25.7402C24.0127 27.4559 25.526 29.1521 27.0389 30.8428C26.5951 29.1371 26.1003 27.4359 25.6111 25.7402C24.5825 25.7452 23.5385 25.7402 22.4998 25.7402ZM29.4442 25.7402C28.9499 27.4359 28.4612 29.1371 28.0174 30.8428C29.5302 29.1521 31.0426 27.4559 32.5555 25.7402C31.5218 25.7402 30.4829 25.7452 29.4442 25.7402ZM26.2166 25.3262L28.8338 25.3311C28.4052 24.7326 27.9669 24.1384 27.5281 23.5449L26.2166 25.3262ZM22.4998 25.3271H25.3846C24.956 24.7337 24.5376 24.1297 24.1141 23.5312C23.5745 24.1297 23.0445 24.7337 22.4998 25.3271ZM29.6766 25.3262H32.5604C32.0258 24.7277 31.487 24.1384 30.9373 23.5449L29.6766 25.3262ZM27.9822 23.416C28.4008 23.9995 28.8396 24.568 29.2733 25.1465C29.6665 24.5631 30.0695 23.9944 30.4627 23.416H27.9822ZM25.8133 25.1416C26.2217 24.5581 26.6505 23.9846 27.1043 23.4111H24.5828C24.9963 23.9846 25.4048 24.5631 25.8133 25.1416Z" fill="white"/>
<path d="M35.5449 14.3765C35.7876 14.2533 36.0627 14.2065 36.3329 14.2437H45.4052C45.6556 14.253 45.9031 14.3043 46.1367 14.394L46.2216 14.4282C46.4665 14.5295 46.6898 14.6775 46.8779 14.8628C47.1457 15.097 47.3638 15.382 47.5185 15.7007C49.1671 19.4384 50.012 23.4744 49.9999 27.5522C49.9878 31.6304 49.1182 35.6618 47.4472 39.3901C47.2121 39.8331 46.8509 40.1979 46.4081 40.4399C45.9654 40.6819 45.4604 40.7903 44.956 40.7515H36.0497C35.9087 40.7431 35.7699 40.7106 35.6396 40.6548C35.4656 40.5802 35.3109 40.4657 35.1894 40.3218C35.0681 40.178 34.9825 40.0081 34.9394 39.8257C34.8962 39.6432 34.897 39.4532 34.9413 39.271C36.121 31.8103 36.1665 24.2167 35.0771 16.7427C34.9407 16.1492 34.9068 15.5369 34.9765 14.9321C35.1036 14.6935 35.3022 14.4996 35.5449 14.3765ZM41.4511 25.77L42.2226 28.6577L42.415 29.3813L42.4501 29.5161L42.662 30.314L42.7372 30.603L42.8886 31.1616L43.0654 30.4985L44.0986 26.603L44.3212 25.7603L41.4511 25.77ZM37.8613 25.7603C39.3741 27.4759 40.8865 29.1721 42.3994 30.8628C41.9556 29.1571 41.4668 27.4559 40.9726 25.7603C39.9339 25.7652 38.9 25.7603 37.8613 25.7603ZM44.7997 25.7603C44.3106 27.4559 43.8166 29.1571 43.3779 30.8628C44.8907 29.1721 46.4031 27.4759 47.916 25.7603C46.8773 25.7603 45.8384 25.7652 44.7997 25.7603ZM41.5829 25.3521L44.2001 25.3472L42.8886 23.5659C42.4516 24.1577 42.0166 24.7536 41.5829 25.3521ZM39.4794 23.5659C38.9348 24.1544 38.39 24.7487 37.8554 25.3472H40.7451L39.4794 23.5659ZM45.0322 25.3413H47.9218C47.3721 24.7528 46.8423 24.1488 46.3027 23.5503C45.8791 24.1488 45.4608 24.7528 45.0322 25.3413ZM41.1494 25.1665C41.5779 24.5881 42.0168 24.0195 42.4404 23.436H39.954C40.3474 24.0145 40.751 24.583 41.1494 25.1665ZM43.3378 23.4312C43.7463 24.0046 44.195 24.5782 44.6337 25.1616C45.0371 24.5831 45.4458 24.0047 45.8593 23.4312H43.3378Z" fill="white"/>
<path d="M18.6523 14.2441C18.9225 14.2069 19.1977 14.2529 19.4404 14.376C19.6832 14.4991 19.8817 14.6938 20.0088 14.9326C20.0767 15.5374 20.0413 16.1492 19.9033 16.7422C18.8156 24.2165 18.8626 31.8101 20.0439 39.2705C20.0877 39.4511 20.089 39.6393 20.0469 39.8203C20.0048 40.0012 19.9209 40.17 19.8018 40.3135C19.6825 40.457 19.5307 40.5715 19.3594 40.6475C19.1881 40.7234 19.001 40.7594 18.8135 40.752H10.0439C9.54045 40.791 9.03658 40.6823 8.59473 40.4404C8.15288 40.1985 7.79239 39.8334 7.55859 39.3906C5.88395 35.6633 5.01218 31.6314 5 27.5527C4.98784 23.474 5.83489 19.4372 7.4873 15.7002C7.64345 15.3822 7.8612 15.0976 8.12793 14.8623C8.31535 14.6765 8.53809 14.5293 8.7832 14.4287L8.86914 14.3936C9.10278 14.3038 9.35013 14.2535 9.60059 14.2441H18.6523ZM10.9062 26.6035L11.9404 30.498L12.1172 31.1611L12.2686 30.6025L12.3438 30.3135L12.5557 29.5156L12.5908 29.3809L12.7822 28.6582L13.5547 25.7705L10.6846 25.7607L10.9062 26.6035ZM7.08887 25.7607C8.58488 27.4763 10.0983 29.1766 11.6279 30.8623C11.1892 29.1568 10.6952 27.4562 10.2061 25.7607C9.16722 25.7657 8.1277 25.7607 7.08887 25.7607ZM14.0332 25.7607C13.5391 27.4563 13.0451 29.1568 12.6064 30.8623C14.136 29.1768 15.6486 27.4762 17.1445 25.7607C16.1057 25.7607 15.0669 25.7657 14.0332 25.7607ZM10.8008 25.3467L13.4229 25.3516C12.9893 24.7532 12.5508 24.1598 12.1172 23.5664L10.8008 25.3467ZM14.2598 25.3467H17.1494C16.6149 24.7482 16.07 24.1549 15.5254 23.5664L14.2598 25.3467ZM8.70312 23.5508C8.16358 24.1492 7.62857 24.7524 7.08398 25.3408H9.97363C9.54509 24.7525 9.12663 24.1491 8.70312 23.5508ZM10.3867 25.1768C10.8103 24.5783 11.2393 24.0042 11.668 23.4307H9.14648L10.3867 25.1768ZM12.5654 23.4355C12.989 24.0191 13.4278 24.5885 13.8564 25.167C14.2548 24.5835 14.6584 24.0141 15.0518 23.4355H12.5654Z" fill="white"/>
</svg>
