<svg width="100" height="60" viewBox="0 0 100 60" fill="none" xmlns="http://www.w3.org/2000/svg">
<rect width="100" height="60" rx="4" fill="#26337A"/>
<path fill-rule="evenodd" clip-rule="evenodd" d="M41.4899 39.5468L44.5646 20.4727H49.4795L46.405 39.5468H41.4899Z" fill="#FFFFFE"/>
<path fill-rule="evenodd" clip-rule="evenodd" d="M64.2328 20.9409C63.261 20.5581 61.7326 20.1406 59.8287 20.1406C54.9695 20.1406 51.549 22.7291 51.5206 26.4356C51.4897 29.1772 53.9615 30.7063 55.8249 31.6175C57.7401 32.5516 58.3835 33.1494 58.3759 33.9846C58.3627 35.262 56.8473 35.8474 55.4342 35.8474C53.4664 35.8474 52.421 35.5592 50.8046 34.8471L50.1724 34.5434L49.4851 38.813C50.6312 39.3443 52.7558 39.8054 54.9608 39.8296C60.125 39.8296 63.4805 37.2725 63.5199 33.3144C63.5376 31.1403 62.2279 29.4925 59.3916 28.1319C57.674 27.2474 56.6199 26.6615 56.632 25.7663C56.6331 24.9736 57.5225 24.1249 59.4475 24.1249C61.0552 24.0989 62.2189 24.4702 63.1258 24.8578L63.5671 25.0758L64.2328 20.9409Z" fill="#FFFFFE"/>
<path fill-rule="evenodd" clip-rule="evenodd" d="M70.7772 32.7843C71.1845 31.6879 72.7351 27.4527 72.7351 27.4527C72.7064 27.5032 73.1402 26.3479 73.3884 25.633L73.7201 27.2781C73.7201 27.2781 74.6632 31.8308 74.8575 32.7843C74.0923 32.7843 71.7369 32.7843 70.7772 32.7843ZM76.8407 20.4922H73.0424C71.8643 20.4922 70.9824 20.8296 70.4663 22.0733L63.1674 39.5536H68.3296C68.3296 39.5536 69.1718 37.202 69.363 36.686C69.926 36.686 74.9421 36.6958 75.6581 36.6958C75.8054 37.3615 76.2565 39.5536 76.2565 39.5536H80.8183L76.8407 20.4922Z" fill="#FFFFFE"/>
<path fill-rule="evenodd" clip-rule="evenodd" d="M37.3666 20.4888L32.5561 33.4927L32.0408 30.8494C31.1444 27.8037 28.3538 24.5026 25.2324 22.8485L29.6334 39.5302L34.835 39.5271L42.575 20.4888H37.3666Z" fill="#FFFFFE"/>
<path fill-rule="evenodd" clip-rule="evenodd" d="M28.0906 20.4758H20.1648L20.0996 20.871C26.2668 22.451 30.3473 26.2648 32.041 30.8494L30.3187 22.0851C30.0215 20.8764 29.158 20.5181 28.0906 20.4758Z" fill="#EC982D"/>
</svg>
