<svg xmlns="http://www.w3.org/2000/svg" viewBox="0 0 500 500" width="300" height="300"><path fill-rule="evenodd" d="M401.68 258.82q-.27 4.52-.82 9.03-.56 4.5-1.37 8.96-.82 4.46-1.91 8.86-1.08 4.42-2.41 8.74c-57.35-3.44-108.64-29.33-145.19-68.99-36.53 39.66-87.8 65.55-145.13 68.99q-1.35-4.34-2.43-8.74-1.06-4.4-1.89-8.86-.81-4.46-1.39-8.96-.55-4.51-.82-9.03 7.03-.24 13.98-1.04 6.99-.8 13.88-2.15 6.9-1.33 13.65-3.22 6.78-1.88 13.36-4.29-5.77-4.79-11.97-9.01-6.2-4.21-12.77-7.82-6.57-3.62-13.47-6.59-6.89-2.94-14.04-5.26.91-4.4 2.03-8.73 1.15-4.37 2.56-8.64 1.39-4.26 3.05-8.45 1.64-4.18 3.54-8.25c28.77 9.25 54.58 25.07 75.68 45.68q4.79-3.03 9.38-6.39 4.58-3.33 8.96-6.96 4.38-3.64 8.49-7.53 4.14-3.89 8.03-8.04c-35.39-6.14-66.74-24.01-89.93-49.47q2.87-3.48 5.91-6.77 3.05-3.3 6.31-6.41 3.25-3.11 6.67-6.04 3.44-2.9 7.02-5.6 5.16 5.75 10.97 10.78 5.83 5.06 12.24 9.34 6.41 4.29 13.3 7.73 6.88 3.46 14.16 6.02-2.68-6.49-4.93-13.12-2.23-6.65-4.03-13.43-1.82-6.77-3.17-13.65-1.35-6.87-2.26-13.83 4.24-1.64 8.56-3.01 4.32-1.39 8.72-2.52 4.38-1.13 8.84-2 4.44-.86 8.94-1.46.9 8.56 2.62 16.97t4.24 16.64q2.52 8.21 5.81 16.15 3.3 7.94 7.33 15.51 4.05-7.57 7.35-15.51 3.29-7.94 5.81-16.17 2.52-8.21 4.23-16.64 1.73-8.43 2.63-16.97 4.48.6 8.94 1.46 4.46.85 8.84 1.98 4.4 1.13 8.72 2.52t8.55 3.03q-.9 6.96-2.25 13.83-1.37 6.9-3.17 13.67-1.8 6.78-4.05 13.41-2.23 6.65-4.91 13.14c19.64-6.9 37-18.67 50.63-33.85q3.6 2.7 7.04 5.61 3.42 2.9 6.67 6.01 3.26 3.11 6.33 6.41 3.07 3.29 5.93 6.75c-23.19 25.46-54.56 43.35-89.95 49.49q3.87 4.15 8 8.04 4.14 3.89 8.52 7.53 4.36 3.63 8.96 6.96 4.59 3.36 9.37 6.39c21.11-20.61 46.93-36.43 75.69-45.68q1.89 4.07 3.52 8.26 1.66 4.18 3.05 8.46 1.39 4.27 2.54 8.62 1.13 4.35 2.02 8.75-7.14 2.3-14.04 5.26-6.87 2.97-13.44 6.57-6.57 3.61-12.77 7.82-6.2 4.22-11.98 9.01 6.62 2.41 13.37 4.29 6.77 1.89 13.67 3.22 6.9 1.35 13.88 2.15t13.99 1.04zM232.06 400.28v-51.04l-51.51-67.17q4.15-1.82 8.22-3.83 4.1-2 8.09-4.15 3.99-2.17 7.9-4.5 3.91-2.34 7.71-4.81l37.52 48.91 37.53-48.91q3.81 2.47 7.72 4.81 3.89 2.33 7.9 4.5 3.99 2.15 8.06 4.15 4.1 2.01 8.25 3.83l-51.51 67.17v51q-4.46.53-8.97.8-4.48.27-8.98.29-4.48 0-8.99-.27-4.48-.27-8.94-.78" style="fill:#fa6432"/></svg>