<svg width="100" height="60" viewBox="0 0 100 60" fill="none" xmlns="http://www.w3.org/2000/svg">
<g clip-path="url(#clip0_30_4)">
<rect width="100" height="60" rx="4" fill="#030303"/>
<path d="M77.6598 51.9666V52.0844H77.7685C77.7925 52.0844 77.813 52.0787 77.8279 52.0695C77.8416 52.0604 77.8496 52.0444 77.8496 52.0249C77.8496 52.0055 77.8416 51.9906 77.8279 51.9815C77.813 51.9712 77.7925 51.9666 77.7685 51.9666H77.6598ZM77.7696 51.8843C77.8256 51.8843 77.8691 51.8969 77.8999 51.9221C77.9308 51.9472 77.9457 51.9815 77.9457 52.0249C77.9457 52.0615 77.9342 52.0913 77.9091 52.1153C77.8851 52.1381 77.8508 52.153 77.805 52.1587L77.9491 52.3245H77.837L77.7033 52.1598H77.6598V52.3245H77.5661V51.8843H77.7696ZM77.741 52.4765C77.7925 52.4765 77.8405 52.4662 77.8839 52.4468C77.9285 52.4274 77.9674 52.4011 78.0005 52.3679C78.0337 52.3348 78.06 52.2959 78.0794 52.2502C78.0977 52.2056 78.108 52.1576 78.108 52.1061C78.108 52.0547 78.0977 52.0067 78.0794 51.9621C78.06 51.9175 78.0337 51.8775 78.0005 51.8443C77.9674 51.8112 77.9285 51.7849 77.8839 51.7654C77.8405 51.7471 77.7925 51.738 77.741 51.738C77.6896 51.738 77.6404 51.7471 77.5958 51.7654C77.5501 51.7849 77.5101 51.8112 77.4769 51.8443C77.4438 51.8775 77.4175 51.9175 77.3992 51.9621C77.3797 52.0067 77.3706 52.0547 77.3706 52.1061C77.3706 52.1576 77.3797 52.2056 77.3992 52.2502C77.4175 52.2959 77.4438 52.3348 77.4769 52.3679C77.5101 52.4011 77.5501 52.4274 77.5958 52.4468C77.6404 52.4662 77.6896 52.4765 77.741 52.4765ZM77.741 51.6317C77.8085 51.6317 77.8702 51.6442 77.9296 51.6694C77.988 51.6934 78.0383 51.7277 78.0828 51.7711C78.1263 51.8134 78.1606 51.8637 78.1857 51.9221C78.2109 51.9792 78.2235 52.0409 78.2235 52.1061C78.2235 52.1713 78.2109 52.233 78.1857 52.2902C78.1606 52.3473 78.1263 52.3976 78.0828 52.4411C78.0383 52.4834 77.988 52.5177 77.9296 52.5428C77.8702 52.568 77.8085 52.5806 77.741 52.5806C77.6724 52.5806 77.6095 52.568 77.5501 52.5428C77.4906 52.5177 77.4392 52.4834 77.3957 52.4411C77.3523 52.3976 77.318 52.3473 77.2929 52.2902C77.2677 52.233 77.2551 52.1713 77.2551 52.1061C77.2551 52.0409 77.2677 51.9792 77.2929 51.9221C77.318 51.8637 77.3523 51.8134 77.3957 51.7711C77.4392 51.7277 77.4906 51.6934 77.5501 51.6694C77.6095 51.6442 77.6724 51.6317 77.741 51.6317ZM33.1986 49.9362C33.1986 49.0971 33.7485 48.4077 34.6471 48.4077C35.5057 48.4077 36.0853 49.0673 36.0853 49.9362C36.0853 50.8051 35.5057 51.4647 34.6471 51.4647C33.7485 51.4647 33.1986 50.7754 33.1986 49.9362ZM37.0639 49.9362V47.5491H36.0258V48.1287C35.6966 47.6989 35.197 47.4291 34.5179 47.4291C33.1791 47.4291 32.1296 48.4786 32.1296 49.9362C32.1296 51.395 33.1791 52.4434 34.5179 52.4434C35.197 52.4434 35.6966 52.1736 36.0258 51.7437V52.3233H37.0639V49.9362ZM72.1436 49.9362C72.1436 49.0971 72.6935 48.4077 73.5921 48.4077C74.4519 48.4077 75.0303 49.0673 75.0303 49.9362C75.0303 50.8051 74.4519 51.4647 73.5921 51.4647C72.6935 51.4647 72.1436 50.7754 72.1436 49.9362ZM76.0101 49.9362V45.6319H74.9709V48.1287C74.6416 47.6989 74.142 47.4291 73.4629 47.4291C72.1242 47.4291 71.0747 48.4786 71.0747 49.9362C71.0747 51.395 72.1242 52.4434 73.4629 52.4434C74.142 52.4434 74.6416 52.1736 74.9709 51.7437V52.3233H76.0101V49.9362ZM49.9496 48.3585C50.6184 48.3585 51.0482 48.7781 51.158 49.5166H48.6806C48.7914 48.8273 49.2099 48.3585 49.9496 48.3585ZM49.9701 47.4291C48.5708 47.4291 47.5922 48.4477 47.5922 49.9362C47.5922 51.4545 48.6108 52.4434 50.0399 52.4434C50.759 52.4434 51.4175 52.2639 51.9971 51.7746L51.4884 51.0052C51.0883 51.3241 50.5784 51.5048 50.0993 51.5048C49.4305 51.5048 48.8212 51.1949 48.6714 50.3352H52.2166C52.2269 50.206 52.2372 50.0757 52.2372 49.9362C52.2269 48.4477 51.3078 47.4291 49.9701 47.4291ZM62.5048 49.9362C62.5048 49.0971 63.0547 48.4077 63.9533 48.4077C64.8119 48.4077 65.3915 49.0673 65.3915 49.9362C65.3915 50.8051 64.8119 51.4647 63.9533 51.4647C63.0547 51.4647 62.5048 50.7754 62.5048 49.9362ZM66.3702 49.9362V47.5491H65.3321V48.1287C65.0017 47.6989 64.5032 47.4291 63.8241 47.4291C62.4854 47.4291 61.4359 48.4786 61.4359 49.9362C61.4359 51.395 62.4854 52.4434 63.8241 52.4434C64.5032 52.4434 65.0017 52.1736 65.3321 51.7437V52.3233H66.3702V49.9362ZM56.6422 49.9362C56.6422 51.3847 57.6505 52.4434 59.1894 52.4434C59.9085 52.4434 60.3875 52.2833 60.9065 51.874L60.4081 51.0349C60.0182 51.315 59.6089 51.4647 59.1585 51.4647C58.3296 51.4545 57.7203 50.8554 57.7203 49.9362C57.7203 49.017 58.3296 48.418 59.1585 48.4077C59.6089 48.4077 60.0182 48.5574 60.4081 48.8375L60.9065 47.9984C60.3875 47.5891 59.9085 47.4291 59.1894 47.4291C57.6505 47.4291 56.6422 48.4877 56.6422 49.9362ZM70.0263 47.4291C69.4272 47.4291 69.0374 47.7091 68.7676 48.1287V47.5491H67.7387V52.3233H68.7779V49.647C68.7779 48.857 69.1174 48.418 69.7965 48.418C70.0069 48.418 70.2264 48.4477 70.4459 48.538L70.766 47.5594C70.5362 47.4691 70.2367 47.4291 70.0263 47.4291ZM42.1983 47.9287C41.6987 47.5994 41.0104 47.4291 40.2513 47.4291C39.0417 47.4291 38.2632 48.0087 38.2632 48.9576C38.2632 49.7361 38.8428 50.2163 39.9106 50.3661L40.4011 50.4358C40.9704 50.5158 41.2391 50.6656 41.2391 50.9354C41.2391 51.3047 40.8595 51.5151 40.1507 51.5151C39.4316 51.5151 38.9126 51.2853 38.5627 51.0154L38.0734 51.8237C38.6428 52.2433 39.3619 52.4434 40.1404 52.4434C41.5192 52.4434 42.3183 51.794 42.3183 50.8851C42.3183 50.046 41.6895 49.607 40.6503 49.4572L40.161 49.3863C39.7117 49.3269 39.3516 49.2377 39.3516 48.9176C39.3516 48.5677 39.6911 48.3585 40.2605 48.3585C40.8698 48.3585 41.4597 48.5883 41.749 48.7678L42.1983 47.9287ZM55.5927 47.4291C54.9936 47.4291 54.6038 47.7091 54.3351 48.1287V47.5491H53.3062V52.3233H54.3442V49.647C54.3442 48.857 54.6838 48.418 55.3629 48.418C55.5732 48.418 55.7928 48.4477 56.0123 48.538L56.3324 47.5594C56.1026 47.4691 55.803 47.4291 55.5927 47.4291ZM46.7336 47.5491H45.0358V46.1006H43.9863V47.5491H43.018V48.498H43.9863V50.6759C43.9863 51.7837 44.4162 52.4434 45.6441 52.4434C46.0945 52.4434 46.6135 52.3039 46.9428 52.0741L46.6433 51.1846C46.3334 51.3641 45.9939 51.4545 45.7241 51.4545C45.205 51.4545 45.0358 51.1343 45.0358 50.6553V48.498H46.7336V47.5491ZM31.2116 52.3233V49.3269C31.2116 48.1985 30.4925 47.4393 29.3332 47.4291C28.7239 47.4188 28.0951 47.6085 27.6549 48.2785C27.3256 47.7492 26.8066 47.4291 26.0772 47.4291C25.5673 47.4291 25.0689 47.5788 24.679 48.1379V47.5491H23.6398V52.3233H24.6882V49.6767C24.6882 48.8478 25.1477 48.4077 25.8577 48.4077C26.5471 48.4077 26.8958 48.857 26.8958 49.6664V52.3233H27.9453V49.6767C27.9453 48.8478 28.4243 48.4077 29.1137 48.4077C29.8225 48.4077 30.1621 48.857 30.1621 49.6664V52.3233H31.2116Z" fill="white"/>
<path d="M78.2998 36.4463V35.7489H78.118L77.9077 36.2279L77.6984 35.7489H77.5155V36.4463H77.6447V35.9204L77.8413 36.3743H77.9751L78.1717 35.9192V36.4463H78.2998ZM77.1462 36.4463V35.8678H77.3795V35.75H76.785V35.8678H77.0182V36.4463H77.1462Z" fill="#F79410"/>
<path d="M57.6298 39.4459H41.8967V11.1709H57.6298V39.4459Z" fill="#FF5F00"/>
<path d="M42.9046 25.3063C42.9046 19.5706 45.5902 14.4613 49.7722 11.1688C46.714 8.76106 42.8543 7.32399 38.6597 7.32399C28.7294 7.32399 20.6797 15.3748 20.6797 25.3063C20.6797 35.2378 28.7294 43.2886 38.6597 43.2886C42.8543 43.2886 46.714 41.8515 49.7722 39.4438C45.5902 36.1512 42.9046 31.042 42.9046 25.3063Z" fill="#EB001B"/>
<path d="M78.8488 25.3063C78.8488 35.2378 70.7991 43.2886 60.8687 43.2886C56.6741 43.2886 52.8145 41.8515 49.7551 39.4438C53.9383 36.1512 56.6238 31.042 56.6238 25.3063C56.6238 19.5706 53.9383 14.4613 49.7551 11.1688C52.8145 8.76106 56.6741 7.32399 60.8687 7.32399C70.7991 7.32399 78.8488 15.3748 78.8488 25.3063Z" fill="#F79E1B"/>
</g>
<defs>
<clipPath id="clip0_30_4">
<rect width="100" height="60" rx="4" fill="white"/>
</clipPath>
</defs>
</svg>
