<svg width="134" height="48" viewBox="0 0 134 48" fill="none" xmlns="http://www.w3.org/2000/svg">
<path d="M6.09272 46.7472V32.566H1.94238V28.1821H15.3169V32.566H11.1559V46.7472H6.09272Z" fill="#00AFD8"/>
<path d="M17.79 46.7471V28.182H23.0974C24.5469 28.135 25.9975 28.231 27.4282 28.4686C28.1956 28.6328 28.9193 28.9585 29.5511 29.4239C30.2187 29.9323 30.748 30.6002 31.0902 31.3664C31.4571 32.1838 31.6418 33.0711 31.6316 33.967C31.6864 35.2214 31.312 36.4569 30.5701 37.4699C29.7864 38.4158 28.6913 39.0518 27.4812 39.2637L32.5444 46.694H26.7913L22.5454 39.4336V46.694L17.79 46.7471ZM22.5348 36.9285H23.437C24.2721 36.9921 25.1065 36.7956 25.8253 36.3659C26.3587 35.9596 26.6568 35.3159 26.6214 34.6463C26.6874 33.9187 26.4269 33.1993 25.9103 32.6826C25.211 32.2228 24.3767 32.0133 23.5432 32.0882H22.4817V36.9285H22.5348Z" fill="#00AFD8"/>
<path d="M32.2583 46.7472L38.6271 28.1821H44.9959L51.3647 46.7472H46.3758L45.4417 43.4248H38.2981L37.2366 46.7472H32.2583ZM39.3595 39.8052H44.3909L42.5015 33.6805C42.4449 33.4965 42.3635 33.1958 42.2573 32.7783L41.8646 31.1755C41.7514 31.6354 41.6452 32.0706 41.5462 32.4811C41.4471 32.8915 41.3409 33.2878 41.2277 33.6699L39.3595 39.8052Z" fill="#00AFD8"/>
<path d="M53.1582 46.7472V28.1821H58.041L65.0573 37.7353C65.2998 38.1166 65.523 38.5098 65.726 38.9136C66.0373 39.5009 66.3912 40.2086 66.7875 41.0365C66.6884 40.2652 66.6141 39.5823 66.5645 38.9879C66.515 38.3934 66.4902 37.8592 66.4902 37.3851V28.1821H71.3412V46.7472H66.4796L59.4633 37.194C59.2125 36.8195 58.9856 36.4295 58.784 36.0264C58.4726 35.439 58.1365 34.7314 57.7756 33.9034C57.8747 34.6818 57.949 35.3718 57.9985 35.9733C58.048 36.5748 58.0728 37.1091 58.0728 37.5761V46.7472H53.1582Z" fill="#00AFD8"/>
<path d="M76.1388 40.7494C76.7744 41.5019 77.5271 42.147 78.3679 42.6601C79.0271 43.0632 79.782 43.283 80.5545 43.2969C81.157 43.322 81.7484 43.1299 82.221 42.7556C82.6441 42.4238 82.8876 41.9132 82.8792 41.3757C82.9118 40.8416 82.7057 40.3206 82.3166 39.9533C81.5413 39.436 80.6722 39.0754 79.7584 38.8918C78.329 38.6031 77.0004 37.9443 75.9053 36.9812C75.1291 36.1072 74.7254 34.9644 74.7802 33.7968C74.7006 32.158 75.3311 30.5643 76.5104 29.4236C77.7682 28.2777 79.4277 27.6749 81.1277 27.7464C82.1122 27.7417 83.0921 27.8812 84.0361 28.1604C84.9622 28.4418 85.8394 28.8642 86.6367 29.4129L85.0552 33.0538C84.5232 32.6097 83.9251 32.2515 83.2825 31.9923C82.7149 31.7515 82.1052 31.6253 81.4886 31.6208C80.9586 31.596 80.4355 31.7492 80.0026 32.056C79.6382 32.3141 79.424 32.7347 79.4294 33.1811C79.4133 33.61 79.5977 34.022 79.9283 34.2957C80.5144 34.684 81.1706 34.9544 81.8601 35.0918L82.0937 35.1555C83.5885 35.4085 85.0008 36.0164 86.2122 36.9281C86.6584 37.399 86.9986 37.96 87.2099 38.5734C87.4445 39.2562 87.5594 39.9744 87.5496 40.6963C87.6179 42.4759 86.9135 44.1982 85.6177 45.4199C84.1916 46.6642 82.3387 47.3072 80.4484 47.2137C79.2382 47.2303 78.0368 47.0066 76.9137 46.5556C75.7751 46.0614 74.7384 45.3595 73.8567 44.4858L76.1388 40.7494Z" fill="#00AFD8"/>
<path d="M90.4049 46.7472V28.1821H101.773V32.2582H95.3301V35.4426H101.402V39.4231H95.3301V46.7154H90.3943L90.4049 46.7472Z" fill="#00AFD8"/>
<path d="M104.523 46.7472V28.1821H115.891V32.2582H109.416V35.4426H115.488V39.4231H109.416V42.5544H115.859V46.7154H104.523V46.7472Z" fill="#00AFD8"/>
<path d="M119.245 46.7471V28.182H124.553C126.002 28.135 127.453 28.231 128.883 28.4686C129.651 28.6328 130.375 28.9585 131.006 29.4239C131.674 29.9323 132.203 30.6002 132.546 31.3664C132.912 32.1839 133.097 33.0712 133.087 33.967C133.142 35.2214 132.767 36.4569 132.025 37.4699C131.242 38.4166 130.147 39.0527 128.937 39.2637L134 46.694H128.278L124.033 39.4336V46.694L119.245 46.7471ZM123.99 36.9285H124.924C125.759 36.9921 126.594 36.7956 127.313 36.3659C127.84 35.944 128.122 35.2874 128.066 34.6145C128.141 33.8814 127.884 33.153 127.366 32.6296C126.666 32.1697 125.832 31.9602 124.999 32.0351H123.937L123.99 36.9285Z" fill="#00AFD8"/>
<path d="M32.8206 24.8173V0.06385H39.6033C41.5602 0.0171366 43.518 0.105804 45.4626 0.329217C46.4642 0.475063 47.4335 0.790973 48.3286 1.26331C49.2142 1.72895 49.9502 2.43546 50.4515 3.30133C50.945 4.2053 51.1939 5.2225 51.1733 6.25221C51.2415 7.46246 50.8639 8.65576 50.1119 9.60645C49.1634 10.5523 47.9553 11.1952 46.6409 11.4534C48.2074 11.4985 49.6922 12.1627 50.77 13.3004C51.8027 14.529 52.3335 16.1023 52.256 17.7054C52.2809 18.9188 51.9921 20.1181 51.4175 21.1871C50.8683 22.1834 50.0376 22.9956 49.0292 23.5223C48.0467 24.017 46.9883 24.3435 45.8978 24.4882C43.8793 24.7215 41.8472 24.8173 39.8156 24.7748H32.8206V24.8173ZM39.0726 9.95673H40.4207C41.5911 10.0461 42.766 9.85699 43.8492 9.40477C44.4928 8.99721 44.8536 8.26327 44.7833 7.50474C44.8742 6.73726 44.5408 5.98103 43.9129 5.53041C42.8499 5.05974 41.6849 4.86619 40.5268 4.96783H39.0832V9.95673H39.0726ZM39.0726 19.7647H41.4821C42.6471 19.8498 43.8149 19.6418 44.8788 19.1597C45.566 18.7352 45.9527 17.9576 45.8766 17.1535C45.9497 16.3372 45.6065 15.5391 44.9638 15.0305C43.9108 14.5251 42.7412 14.3125 41.5777 14.4149H39.0832V19.8071L39.0726 19.7647Z" fill="#006E90"/>
<path d="M53.4021 24.8169L61.8938 0.0634766H70.3856L78.941 24.8169H72.2644L71.0119 20.3906H61.4586L60.1743 24.8169H53.4021ZM62.8492 15.5715H69.5576L67.042 7.40883C66.9641 7.16116 66.858 6.76134 66.7235 6.20937L66.2034 4.08644C66.0548 4.69501 65.9097 5.27528 65.7682 5.82725C65.6267 6.37921 65.4816 6.90994 65.333 7.41945L62.8492 15.5715Z" fill="#006E90"/>
<path d="M81.3083 24.8169V0.0634766H87.8151L97.1667 12.8011C97.4897 13.306 97.7873 13.8268 98.0583 14.3614C98.4688 15.1469 98.9216 16.081 99.417 17.1637C99.2825 16.1376 99.1835 15.2248 99.1198 14.4251C99.0561 13.6255 99.0243 12.9178 99.0243 12.3022V0.0634766H105.499V24.8169H99.0243L89.6727 12.0793C89.3392 11.5788 89.0379 11.0576 88.7705 10.5189C88.36 9.73345 87.9107 8.81351 87.4224 7.75912C87.5569 8.79935 87.6559 9.71929 87.7196 10.5189C87.7833 11.3186 87.8151 12.0262 87.8151 12.6419V24.8169H81.3083Z" fill="#006E90"/>
<path d="M110.807 24.8169V0.0634766H117.484V11.3044L125.338 0.0634766H133.204L124.054 12.1324L134 24.8169H125.551L117.484 13.7139V24.8169H110.807Z" fill="#006E90"/>
<path d="M27.4071 0H0V4.90398H27.4071V0Z" fill="url(#paint0_linear_413_4964)"/>
<path d="M27.4071 9.52148H0V14.4255H27.4071V9.52148Z" fill="url(#paint1_linear_413_4964)"/>
<path d="M27.4071 19.9131H0V24.8171H27.4071V19.9131Z" fill="url(#paint2_linear_413_4964)"/>
<defs>
<linearGradient id="paint0_linear_413_4964" x1="0" y1="2.45199" x2="27.4071" y2="2.45199" gradientUnits="userSpaceOnUse">
<stop stop-color="#E70000" stop-opacity="0"/>
<stop offset="0.33" stop-color="#DE0000" stop-opacity="0.45"/>
<stop offset="0.74" stop-color="#CD0000"/>
<stop offset="0.79" stop-color="#C20000"/>
<stop offset="0.89" stop-color="#A60000"/>
<stop offset="1" stop-color="#800000"/>
</linearGradient>
<linearGradient id="paint1_linear_413_4964" x1="0" y1="11.9735" x2="27.4071" y2="11.9735" gradientUnits="userSpaceOnUse">
<stop stop-color="#E70000" stop-opacity="0"/>
<stop offset="0.33" stop-color="#DE0000" stop-opacity="0.45"/>
<stop offset="0.74" stop-color="#CD0000"/>
<stop offset="0.79" stop-color="#C20000"/>
<stop offset="0.89" stop-color="#A60000"/>
<stop offset="1" stop-color="#800000"/>
</linearGradient>
<linearGradient id="paint2_linear_413_4964" x1="0" y1="22.3651" x2="27.4071" y2="22.3651" gradientUnits="userSpaceOnUse">
<stop stop-color="#E70000" stop-opacity="0"/>
<stop offset="0.33" stop-color="#DE0000" stop-opacity="0.45"/>
<stop offset="0.74" stop-color="#CD0000"/>
<stop offset="0.79" stop-color="#C20000"/>
<stop offset="0.89" stop-color="#A60000"/>
<stop offset="1" stop-color="#800000"/>
</linearGradient>
</defs>
</svg>
