<svg width="55" height="55" viewBox="0 0 55 55" fill="none" xmlns="http://www.w3.org/2000/svg">
<circle cx="27.5" cy="27.5" r="27.5" fill="#1E1E56"/>
<circle cx="27.5" cy="27.5" r="27.5" fill="url(#paint0_linear_0_1811)"/>
<path d="M18.5622 9.4434C9.31254 26.8492 3.14837 34.3072 1.19531 35.8696C1.79314 37.4638 3.34749 41.1305 4.78227 43.0436C14.7027 26.7041 14.3699 28.0228 17.1285 23.0909C17.18 22.9988 17.3231 23.0401 17.3189 23.1456C16.9159 33.4532 18.3238 39.5412 19.9798 42.7118C20.7912 44.2652 22.1084 45.2455 23.8559 45.378C25.308 45.488 27.0056 45.1062 28.1189 44.1675C32.6716 40.3286 36.9618 31.992 38.7756 27.6975C38.8089 27.6186 38.9182 27.6187 38.9576 27.6947C39.9778 29.6583 42.6811 33.8389 46.4433 37.0257C46.6104 37.1673 46.8385 36.9727 46.7328 36.7808C42.6141 29.303 41.3494 23.4371 41.1757 20.1166C41.1159 18.9724 40.7271 17.9348 39.5814 17.9348C39.0944 17.9348 38.1313 18.2236 37.931 18.6676C33.3862 28.7374 29.8152 35.2262 27.5562 38.5365C27.1554 39.1239 26.5515 39.4566 25.8403 39.4566C24.7609 39.4566 23.7616 38.6891 23.5743 37.6261C21.3113 24.7825 21.8407 14.5172 22.5351 9.53961C22.6209 8.92477 22.149 8.36963 21.5282 8.36963H20.3379C19.5954 8.36963 18.9107 8.78768 18.5622 9.4434Z" fill="white"/>
<defs>
<linearGradient id="paint0_linear_0_1811" x1="40.6522" y1="5.97826" x2="10.7609" y2="50.2174" gradientUnits="userSpaceOnUse">
<stop stop-color="#009DE0"/>
<stop offset="1" stop-color="#00A15B"/>
</linearGradient>
</defs>
</svg>
