<svg fill="none" height="38" viewBox="0 0 107 38" width="107" xmlns="http://www.w3.org/2000/svg"><path d="m55.9864 0h-1.0775v37.6926h1.0775v-7.274h13.7583v-4.3809h-10.6088v-5.0422h9.0755v-4.4223h-9.0755v-4.9182h10.6088v-4.42231h-13.7583z" fill="#7ab65e"/><g fill="#1d1c1f"><path d="m13.1367 21.4501-3.89541-6.2821-5.01433-7.85267-.08289-.08266h-4.14407v23.18593h4.59992v-14.2587l3.43958 5.5795 5.5531 8.6792h4.1855v-23.18593h-4.6414z"/><path d="m20.3474 30.4186h15.2502v-4.3809h-10.6088v-5.0423h9.0755v-4.4222h-9.0755v-4.9183h10.6088v-4.42223h-15.2502z"/><path d="m37.4624 11.6963h5.3459v18.7223h4.6413v-18.7223h5.263v-4.46363h-15.2502z"/></g><g fill="#7ab65e"><path d="m85.2022 21.4913-3.8955-6.3234-5.0143-7.81132-.0829-.08265h-4.1441v23.18597h4.6v-14.2588l3.4395 5.5795 5.5531 8.6793h4.1855v-23.18597h-4.6413z"/><path d="m91.7498 7.27393v4.46357h5.3044v18.7224h4.6418v-18.7224h5.304v-4.46357z"/></g></svg>