<svg width="100" height="60" viewBox="0 0 100 60" fill="none" xmlns="http://www.w3.org/2000/svg">
<rect width="100" height="60" rx="4" fill="#862165"/>
<path fill-rule="evenodd" clip-rule="evenodd" d="M62.8085 24.7946C64.139 24.7946 65.2168 23.7171 65.2168 22.388C65.2168 21.0586 64.139 19.9801 62.8085 19.9801C61.4804 19.9801 60.4027 21.0586 60.4027 22.388C60.4027 23.7171 61.4804 24.7946 62.8085 24.7946ZM44.3648 26.0938C44.2558 26.3671 43.474 28.5763 41.5821 30.866V21.0758L36.5421 22.0718V39.8183H41.5821V34.3328C43.0422 36.5217 43.7628 39.8183 43.7628 39.8183H49.7998C49.2026 37.3358 46.5905 32.7582 46.5905 32.7582C48.9348 29.7861 49.9644 26.6191 50.1281 26.0938H44.3648ZM57.6145 25.9088C53.1005 26.0539 50.8085 28.0792 50.8085 32.1053V39.8183H55.734V33.5283C55.734 31.118 56.0496 30.0842 58.9099 29.9859V25.9796C58.4286 25.8772 57.6145 25.9088 57.6145 25.9088ZM28.0896 28.0482C27.4722 28.008 26.043 27.9155 26.043 26.6287C26.043 25.0762 28.1006 25.0762 28.8724 25.0762C30.2294 25.0762 31.9869 25.4767 33.242 25.8524C33.242 25.8524 33.9423 26.0993 34.5381 26.352L34.5935 26.3671V26.3107V22.1147L34.5175 22.0924C33.0361 21.5743 31.3137 21.0758 28.1206 21.0758C22.6147 21.0758 20.6641 24.283 20.6641 27.0306C20.6641 28.6145 21.3427 32.3426 27.6485 32.7726C28.1828 32.8053 29.6013 32.8871 29.6013 34.2166C29.6013 35.3146 28.44 35.9617 26.4869 35.9617C24.3464 35.9617 22.2692 35.4161 21.0082 34.8983V39.2775C22.8966 39.7722 25.0247 40.0198 27.5196 40.0198C32.9031 40.0198 35.3141 36.9851 35.3141 33.9776C35.3141 30.5676 32.616 28.3515 28.0896 28.0482ZM60.3672 39.8183H65.2522V26.1096H60.3672V39.8183ZM74.4507 21.9494V39.8183H79.3367V21.0758L74.4507 21.9494ZM67.3218 21.9494L72.2026 21.0758V39.8183H67.3218V21.9494Z" fill="white"/>
</svg>
